<svg xmlns="http://www.w3.org/2000/svg" xmlns:xlink="http://www.w3.org/1999/xlink" width="40" zoomAndPan="magnify" viewBox="0 0 30 30.000001" height="40" preserveAspectRatio="xMidYMid meet" version="1.0"><defs><clipPath id="c0d8e6716c"><path d="M 10.972656 8.710938 L 18.957031 8.710938 L 18.957031 20.324219 L 10.972656 20.324219 Z M 10.972656 8.710938 " clip-rule="nonzero"/></clipPath></defs><g clip-path="url(#c0d8e6716c)"><path fill="#000000" d="M 14.964844 8.707031 C 12.757812 8.707031 10.972656 10.511719 10.972656 12.734375 C 10.972656 13.101562 11.023438 13.460938 11.117188 13.800781 C 11.195312 14.097656 11.308594 14.378906 11.449219 14.644531 C 11.484375 14.710938 11.519531 14.773438 11.558594 14.832031 L 14.566406 20.089844 C 14.574219 20.101562 14.578125 20.113281 14.585938 20.125 C 14.667969 20.246094 14.808594 20.324219 14.964844 20.324219 C 15.121094 20.324219 15.257812 20.242188 15.339844 20.125 L 15.355469 20.101562 L 18.367188 14.835938 L 18.476562 14.644531 C 18.617188 14.378906 18.730469 14.097656 18.8125 13.800781 C 18.90625 13.460938 18.953125 13.101562 18.953125 12.734375 C 18.953125 10.511719 17.167969 8.707031 14.964844 8.707031 Z M 14.964844 14.421875 C 14.039062 14.421875 13.289062 13.664062 13.289062 12.734375 C 13.289062 11.800781 14.039062 11.046875 14.964844 11.046875 C 15.886719 11.046875 16.636719 11.800781 16.636719 12.734375 C 16.636719 13.664062 15.886719 14.421875 14.964844 14.421875 Z M 14.964844 14.421875 " fill-opacity="1" fill-rule="nonzero"/></g></svg>