<svg xmlns="http://www.w3.org/2000/svg" xmlns:xlink="http://www.w3.org/1999/xlink" width="40" zoomAndPan="magnify" viewBox="0 0 30 30.000001" height="40" preserveAspectRatio="xMidYMid meet" version="1.0"><defs><clipPath id="950c9bb939"><path d="M 10.972656 8.710938 L 18.957031 8.710938 L 18.957031 20.324219 L 10.972656 20.324219 Z M 10.972656 8.710938 " clip-rule="nonzero"/></clipPath></defs><g clip-path="url(#950c9bb939)"><path fill="#ffffff" d="M 14.996094 8.707031 C 12.773438 8.707031 10.972656 10.511719 10.972656 12.734375 C 10.972656 13.101562 11.023438 13.460938 11.117188 13.800781 C 11.199219 14.097656 11.3125 14.378906 11.453125 14.644531 C 11.488281 14.710938 11.527344 14.773438 11.5625 14.832031 L 14.597656 20.089844 C 14.605469 20.101562 14.609375 20.113281 14.617188 20.125 C 14.703125 20.246094 14.839844 20.324219 14.996094 20.324219 C 15.15625 20.324219 15.292969 20.242188 15.378906 20.125 L 15.390625 20.101562 L 18.429688 14.835938 L 18.542969 14.644531 C 18.683594 14.378906 18.796875 14.097656 18.878906 13.800781 C 18.972656 13.460938 19.023438 13.101562 19.023438 12.734375 C 19.023438 10.511719 17.222656 8.707031 14.996094 8.707031 Z M 14.996094 14.421875 C 14.066406 14.421875 13.308594 13.664062 13.308594 12.734375 C 13.308594 11.800781 14.066406 11.046875 14.996094 11.046875 C 15.929688 11.046875 16.683594 11.800781 16.683594 12.734375 C 16.683594 13.664062 15.929688 14.421875 14.996094 14.421875 Z M 14.996094 14.421875 " fill-opacity="1" fill-rule="nonzero"/></g></svg>