<svg xmlns="http://www.w3.org/2000/svg" xmlns:xlink="http://www.w3.org/1999/xlink" width="1080" zoomAndPan="magnify" viewBox="0 0 810 1439.999935" height="1920" preserveAspectRatio="xMidYMid meet" version="1.0"><defs><clipPath id="1c227f97bf"><path d="M 151 7.605469 L 280 7.605469 L 280 132 L 151 132 Z M 151 7.605469 " clip-rule="nonzero"/></clipPath><clipPath id="85b0ced65a"><path d="M 88 7.605469 L 146 7.605469 L 146 30 L 88 30 Z M 88 7.605469 " clip-rule="nonzero"/></clipPath><clipPath id="afeded4efe"><path d="M 19 7.605469 L 322 7.605469 L 322 174 L 19 174 Z M 19 7.605469 " clip-rule="nonzero"/></clipPath><clipPath id="cf90f7a16e"><path d="M 248 7.605469 L 798 7.605469 L 798 568 L 248 568 Z M 248 7.605469 " clip-rule="nonzero"/></clipPath><clipPath id="5202bad44b"><path d="M 356 7.605469 L 798 7.605469 L 798 499 L 356 499 Z M 356 7.605469 " clip-rule="nonzero"/></clipPath><clipPath id="e4cde40b92"><path d="M 431 7.605469 L 798 7.605469 L 798 80 L 431 80 Z M 431 7.605469 " clip-rule="nonzero"/></clipPath><clipPath id="aa4192d114"><path d="M 502 7.605469 L 618 7.605469 L 618 27 L 502 27 Z M 502 7.605469 " clip-rule="nonzero"/></clipPath><clipPath id="94fd638f80"><path d="M 737 785 L 746 785 L 746 786.105469 L 737 786.105469 Z M 737 785 " clip-rule="nonzero"/></clipPath><clipPath id="839525b2f7"><path d="M 63 516 L 487 516 L 487 786.105469 L 63 786.105469 Z M 63 516 " clip-rule="nonzero"/></clipPath><clipPath id="d14128e2e7"><path d="M 151 776.148438 L 280 776.148438 L 280 901 L 151 901 Z M 151 776.148438 " clip-rule="nonzero"/></clipPath><clipPath id="9eaea22d60"><path d="M 88 776.148438 L 146 776.148438 L 146 799 L 88 799 Z M 88 776.148438 " clip-rule="nonzero"/></clipPath><clipPath id="50500e1525"><path d="M 19 776.148438 L 322 776.148438 L 322 943 L 19 943 Z M 19 776.148438 " clip-rule="nonzero"/></clipPath><clipPath id="ab17313330"><path d="M 248 776.148438 L 798 776.148438 L 798 1337 L 248 1337 Z M 248 776.148438 " clip-rule="nonzero"/></clipPath><clipPath id="7231f28c03"><path d="M 356 776.148438 L 798 776.148438 L 798 1268 L 356 1268 Z M 356 776.148438 " clip-rule="nonzero"/></clipPath><clipPath id="976229c986"><path d="M 431 776.148438 L 798 776.148438 L 798 848 L 431 848 Z M 431 776.148438 " clip-rule="nonzero"/></clipPath><clipPath id="8ca6e545c9"><path d="M 502 776.148438 L 618 776.148438 L 618 795 L 502 795 Z M 502 776.148438 " clip-rule="nonzero"/></clipPath></defs><path fill="#000000" d="M 343.964844 647.691406 C 319.359375 647.691406 311.980469 632.390625 303.480469 603.0625 C 302.949219 601.035156 302.820312 598.921875 303.109375 596.847656 C 303.394531 594.773438 304.085938 592.773438 305.144531 590.96875 C 306.257812 588.695312 308.222656 586.957031 310.609375 586.125 C 320.886719 583.558594 331.429688 583.371094 341.628906 583.183594 C 355.640625 582.933594 368.90625 582.699219 381.925781 576.957031 C 386.242188 574.808594 390.402344 572.363281 394.382812 569.640625 C 406.277344 561.996094 419.746094 553.34375 431.890625 557.390625 C 440.066406 560.113281 444.582031 564.097656 445.328125 569.234375 C 447.058594 581.144531 427.328125 594.921875 414.28125 604.042969 C 411.960938 605.601562 409.953125 607.0625 408.394531 608.230469 C 403.273438 612.3125 398.410156 616.710938 393.835938 621.398438 C 382.671875 632.296875 369.996094 644.75 355.097656 646.851562 C 351.410156 647.394531 347.6875 647.675781 343.964844 647.691406 Z M 311.761719 590.65625 C 310.640625 591.222656 309.742188 592.148438 309.207031 593.285156 C 307.71875 595.847656 307.28125 598.890625 307.996094 601.769531 C 317.460938 634.570312 323.9375 646.570312 354.519531 642.246094 C 367.910156 640.34375 379.433594 629.027344 390.644531 618.085938 C 395.363281 613.246094 400.382812 608.714844 405.671875 604.511719 C 407.226562 603.296875 409.328125 601.878906 411.679688 600.230469 C 422.316406 592.804688 442.089844 578.980469 440.78125 569.921875 C 440.300781 566.667969 436.84375 563.957031 430.492188 561.839844 C 420.464844 558.496094 407.992188 566.511719 396.980469 573.578125 C 392.796875 576.445312 388.410156 579.003906 383.855469 581.238281 C 369.964844 587.464844 355.625 587.667969 341.8125 587.914062 C 331.816406 588.023438 321.527344 588.273438 311.761719 590.65625 Z M 311.761719 590.65625 " fill-opacity="1" fill-rule="nonzero"/><path fill="#000000" d="M 757.992188 342.175781 C 751.277344 342.136719 744.742188 339.992188 739.308594 336.042969 C 719.066406 321.769531 710.59375 287.335938 708.960938 271.113281 C 706.703125 248.496094 715.40625 230.375 723.816406 212.878906 C 728.363281 203.414062 733.050781 193.636719 736.054688 183.144531 C 738.578125 174.335938 738.824219 163.066406 739.167969 151.140625 C 739.808594 123.585938 740.539062 92.359375 770.714844 82.304688 C 777.410156 80.0625 780.058594 81.382812 782.6875 83.316406 C 783.015625 83.546875 783.34375 83.796875 783.699219 84.03125 C 783.855469 84.125 784 84.234375 784.136719 84.359375 L 787.0625 87.347656 C 787.171875 87.445312 787.265625 87.554688 787.34375 87.671875 C 791.191406 93.386719 789.539062 104.703125 787.609375 110.511719 C 779.480469 134.871094 771.183594 163.984375 771.183594 195.117188 C 771.183594 209.9375 777.925781 221.410156 785.070312 233.566406 C 796.578125 253.164062 809.625 275.378906 793.667969 315.292969 C 788.125 329.148438 778.828125 338.066406 766.804688 341.070312 C 763.925781 341.800781 760.964844 342.171875 757.992188 342.175781 Z M 776.476562 85.789062 C 774.96875 85.878906 773.484375 86.195312 772.070312 86.722656 C 745.007812 95.753906 744.351562 123.960938 743.714844 151.25 C 743.433594 163.484375 743.171875 175.035156 740.476562 184.4375 C 737.363281 195.335938 732.582031 205.265625 728.019531 214.886719 C 719.519531 232.601562 711.484375 249.320312 713.617188 270.648438 C 715.421875 288.640625 724.515625 319.886719 741.988281 332.214844 C 745.347656 334.660156 749.214844 336.316406 753.304688 337.066406 C 757.390625 337.816406 761.597656 337.636719 765.609375 336.542969 C 778.890625 333.226562 785.851562 322.203125 789.261719 313.550781 C 804.378906 275.769531 792.484375 255.515625 780.976562 235.933594 C 773.828125 223.773438 766.449219 211.210938 766.449219 195.117188 C 766.449219 163.3125 774.871094 133.75 783.109375 109.03125 C 784.882812 103.722656 785.972656 94.414062 783.515625 90.460938 L 780.929688 87.828125 C 780.570312 87.59375 780.230469 87.347656 779.886719 87.097656 C 778.949219 86.261719 777.734375 85.796875 776.476562 85.789062 Z M 776.476562 85.789062 " fill-opacity="1" fill-rule="nonzero"/><path fill="#000000" d="M 336.863281 439.59375 C 335.886719 439.597656 334.914062 439.527344 333.949219 439.390625 C 326.664062 438.347656 321.496094 433.445312 318.628906 424.804688 C 315.765625 416.167969 320.839844 407.886719 325.761719 399.898438 C 328.875 394.886719 331.753906 390.136719 332.488281 385.71875 C 338.964844 346.800781 316.355469 321.425781 265.269531 310.078125 L 263.148438 309.609375 C 255.582031 307.945312 247.765625 306.234375 241.023438 302.339844 C 240.539062 302.058594 240.09375 301.710938 239.699219 301.3125 C 238.808594 300.453125 238.191406 299.347656 237.933594 298.136719 C 237.671875 296.929688 237.777344 295.667969 238.238281 294.519531 C 238.699219 293.371094 239.488281 292.382812 240.511719 291.6875 C 241.535156 290.988281 242.746094 290.613281 243.980469 290.605469 C 255.441406 290.308594 265.300781 289.46875 274.003906 288.734375 C 302.792969 286.324219 323.582031 284.578125 367.554688 304.117188 C 396.671875 317.050781 406.480469 340.058594 398.351562 376.53125 C 395.855469 387.894531 391.261719 398.691406 384.804688 408.367188 C 378.5 417.441406 355.035156 439.59375 336.863281 439.59375 Z M 299.789062 291.910156 C 291.613281 291.910156 283.484375 292.597656 274.40625 293.359375 C 265.640625 294.105469 255.722656 294.914062 244.105469 295.242188 C 243.78125 295.222656 243.457031 295.304688 243.179688 295.480469 C 242.902344 295.652344 242.6875 295.910156 242.566406 296.214844 C 242.445312 296.515625 242.421875 296.851562 242.5 297.167969 C 242.578125 297.484375 242.753906 297.769531 243 297.984375 C 243.109375 298.089844 243.230469 298.183594 243.359375 298.261719 C 249.480469 301.796875 256.9375 303.429688 264.148438 305.019531 L 266.28125 305.484375 C 320.234375 317.472656 344.132812 344.714844 337.097656 386.433594 C 336.207031 391.757812 332.921875 397.097656 329.746094 402.28125 C 325.167969 409.707031 320.855469 416.726562 323.050781 423.296875 C 325.355469 430.207031 329.140625 433.945312 334.621094 434.738281 C 350.097656 436.964844 374.433594 415.078125 380.960938 405.660156 C 387.046875 396.457031 391.394531 386.222656 393.789062 375.460938 C 401.433594 341.070312 392.761719 320.351562 365.652344 308.320312 C 336.164062 295.242188 317.835938 291.910156 299.789062 291.910156 Z M 299.789062 291.910156 " fill-opacity="1" fill-rule="nonzero"/><g clip-path="url(#1c227f97bf)"><path fill="#000000" d="M 268.164062 25.4375 C 264.832031 31.058594 261.375 36.878906 261.375 44.117188 C 261.375 49.800781 263.757812 54.890625 266.046875 59.824219 C 267.960938 63.445312 269.371094 67.308594 270.234375 71.3125 C 272.027344 82.210938 265.5625 91.550781 259.925781 97.574219 C 242.707031 115.710938 207.125 129.316406 183.785156 126.699219 C 172.027344 125.375 164.289062 121.4375 160.132812 114.683594 C 152.003906 101.496094 159.042969 79.578125 166.269531 60.074219 C 167.359375 57.148438 168.417969 53.941406 169.539062 50.546875 C 173.445312 38.761719 177.867188 25.390625 185.109375 17.980469 C 185.886719 17.203125 186.820312 16.300781 187.878906 15.289062 C 190.105469 13.125 192.800781 10.523438 195.464844 7.628906 L 189.09375 7.628906 C 187.539062 9.183594 185.980469 10.648438 184.71875 11.925781 C 183.644531 12.96875 182.679688 13.902344 181.886719 14.695312 C 173.789062 22.882812 169.179688 36.800781 165.117188 49.082031 C 164.011719 52.445312 162.96875 55.605469 161.90625 58.421875 C 154.292969 78.988281 146.898438 102.152344 156.242188 117.125 C 161.144531 125.082031 170.253906 129.859375 183.363281 131.339844 C 185.492188 131.574219 187.625 131.6875 189.765625 131.679688 C 214.023438 131.679688 246.832031 118.230469 263.414062 100.78125 C 272.617188 91.097656 276.601562 80.652344 274.9375 70.566406 C 274.007812 66.136719 272.472656 61.855469 270.375 57.847656 C 268.195312 53.175781 266.125 48.773438 266.125 44.117188 C 266.125 38.15625 269.097656 33.21875 272.257812 27.820312 C 275.667969 22.058594 279.4375 15.660156 279.15625 7.582031 L 274.484375 7.582031 C 274.71875 14.335938 271.464844 19.753906 268.164062 25.4375 Z M 268.164062 25.4375 " fill-opacity="1" fill-rule="nonzero"/></g><g clip-path="url(#85b0ced65a)"><path fill="#000000" d="M 98.816406 25.703125 C 104.359375 29.75 111.644531 30.667969 120.457031 28.441406 C 127.902344 26.558594 136.214844 18.074219 145.652344 7.628906 L 139.316406 7.628906 C 131.761719 15.832031 124.789062 22.527344 119.320312 23.910156 C 111.800781 25.8125 106.007812 25.15625 101.570312 21.933594 C 97.460938 18.914062 94.78125 13.855469 92.960938 7.628906 L 88.054688 7.628906 C 90.109375 15.257812 93.378906 21.730469 98.816406 25.703125 Z M 98.816406 25.703125 " fill-opacity="1" fill-rule="nonzero"/></g><g clip-path="url(#afeded4efe)"><path fill="#000000" d="M 315.0625 41.984375 C 313.632812 51.480469 311.390625 63.777344 306.6875 74.675781 C 298.539062 93.125 287.953125 110.402344 275.21875 126.046875 C 268.988281 133.6875 260.378906 140.367188 252 146.84375 C 249.710938 148.601562 247.46875 150.332031 245.335938 152.058594 C 237.769531 158.191406 229.082031 162.789062 219.753906 165.601562 C 168.695312 181.027344 145.230469 139.730469 122.546875 99.785156 C 105.183594 69.242188 88.789062 40.320312 60.976562 36.910156 C 46.964844 35.167969 33.058594 36.800781 19.214844 39.867188 L 19.214844 44.660156 C 32.964844 41.546875 46.777344 39.835938 60.402344 41.546875 C 85.890625 44.660156 101.726562 72.589844 118.480469 102.089844 C 137.710938 135.945312 159.136719 173.695312 199.089844 173.695312 C 206.570312 173.621094 214 172.453125 221.140625 170.226562 C 231.042969 167.25 240.269531 162.371094 248.296875 155.855469 C 250.414062 154.160156 252.640625 152.445312 254.898438 150.6875 C 263.492188 144.058594 272.367188 137.207031 278.890625 129.144531 C 291.902344 113.136719 302.710938 95.460938 311.03125 76.589844 C 315.949219 65.132812 318.253906 52.445312 319.71875 42.667969 C 321.695312 31.082031 321.820312 19.253906 320.09375 7.628906 L 315.421875 7.628906 C 317.070312 17.171875 317.132812 28.425781 315.0625 41.984375 Z M 315.0625 41.984375 " fill-opacity="1" fill-rule="nonzero"/></g><g clip-path="url(#cf90f7a16e)"><path fill="#000000" d="M 797.761719 499.542969 C 791.949219 499.097656 786.113281 499.027344 780.292969 499.324219 C 748.898438 501.175781 720.714844 516.449219 693.453125 531.144531 C 673.769531 541.777344 653.402344 552.78125 632.242188 558.417969 C 580.097656 572.332031 538.304688 556.003906 511.414062 511.1875 C 502.863281 496.957031 496.933594 485.734375 498.316406 470.574219 C 500.296875 448.777344 508.21875 430.097656 516.613281 410.40625 C 520.785156 400.597656 525.097656 390.449219 528.617188 379.878906 C 533.460938 365.339844 534.191406 351.40625 534.972656 336.652344 C 535.21875 331.980469 535.46875 327 535.890625 322.109375 C 536.605469 313.378906 539.378906 304.535156 542.117188 295.988281 C 544.335938 289.386719 546.148438 282.65625 547.539062 275.832031 C 551.820312 252.324219 540.046875 210.605469 523.761719 191.628906 C 503.207031 167.640625 473.433594 157.289062 435.285156 160.851562 C 396.515625 164.480469 361.292969 181.355469 343.746094 191.101562 C 317.664062 205.59375 271.496094 226.902344 255.472656 206.886719 C 254.496094 205.691406 253.78125 204.304688 253.378906 202.816406 C 252.976562 201.328125 252.894531 199.769531 253.136719 198.246094 C 254.492188 187.503906 267.914062 174.894531 275.621094 169.074219 C 281.632812 164.574219 288.078125 160.089844 294.308594 155.761719 C 324.765625 134.625 356.25 112.75 362.398438 72.777344 C 366.246094 47.746094 363.566406 27.914062 355.796875 7.691406 L 350.753906 7.691406 C 358.753906 27.820312 361.652344 47.355469 357.773438 72.058594 C 351.875 109.996094 321.292969 131.277344 291.582031 151.871094 C 285.355469 156.214844 278.832031 160.730469 272.757812 165.273438 C 270.46875 167.003906 250.367188 182.398438 248.4375 197.59375 C 248.113281 199.734375 248.246094 201.921875 248.820312 204.015625 C 249.394531 206.105469 250.398438 208.054688 251.769531 209.734375 C 260.332031 220.445312 276.386719 222.421875 299.507812 215.601562 C 313.070312 211.601562 328.6875 204.707031 345.957031 195.117188 C 363.222656 185.527344 397.730469 168.980469 435.660156 165.445312 C 472.207031 162.019531 500.636719 171.84375 520.164062 194.601562 C 535.421875 212.394531 546.882812 252.949219 542.882812 274.929688 C 541.519531 281.5625 539.757812 288.105469 537.601562 294.527344 C 534.847656 303.320312 531.996094 312.414062 531.234375 321.660156 C 530.8125 326.625 530.550781 331.574219 530.300781 336.355469 C 529.554688 350.785156 528.835938 364.375 524.179688 378.386719 C 520.722656 388.769531 516.394531 398.824219 512.316406 408.539062 C 504.15625 427.75 495.703125 447.613281 493.628906 470.121094 C 492.074219 486.652344 498.660156 499.058594 507.363281 513.554688 C 528.960938 549.527344 559.699219 567.929688 597.472656 567.929688 C 609.621094 567.828125 621.703125 566.136719 633.410156 562.898438 C 655.117188 557.125 675.71875 545.980469 695.695312 535.222656 C 722.507812 520.730469 750.191406 505.738281 780.585938 503.964844 C 786.296875 503.667969 792.015625 503.742188 797.714844 504.179688 Z M 797.761719 499.542969 " fill-opacity="1" fill-rule="nonzero"/></g><g clip-path="url(#5202bad44b)"><path fill="#000000" d="M 797.761719 422.207031 C 773.242188 430.40625 749.484375 440.730469 726.757812 453.058594 C 718.695312 457.59375 710.941406 462.664062 703.558594 468.238281 C 695.570312 473.980469 687.316406 479.929688 678.503906 484.332031 C 650.570312 498.34375 599.902344 498.34375 576.453125 477.515625 C 544.5625 449.167969 553.859375 414.3125 562.84375 380.597656 C 566.269531 367.769531 572.015625 351.8125 578.117188 334.90625 C 599.078125 276.75 625.171875 204.363281 596.523438 161.398438 C 564.617188 113.5625 494.285156 116.160156 439.101562 134.546875 C 434.710938 136.007812 429.261719 138.46875 423.53125 141.082031 C 405.703125 149.132812 381.332031 160.183594 367.878906 150.097656 C 363.847656 147.078125 361.652344 143.871094 361.152344 140.414062 C 360.1875 133.535156 365.933594 125.9375 371.476562 118.621094 C 373.65625 115.757812 375.710938 113.03125 377.410156 110.308594 C 379.683594 106.679688 382.082031 103.023438 384.570312 99.144531 C 400.53125 74.503906 418.640625 46.59375 415.324219 16.640625 C 414.976562 13.597656 414.398438 10.585938 413.597656 7.628906 L 408.753906 7.628906 C 409.660156 10.753906 410.308594 13.953125 410.683594 17.1875 C 413.796875 45.425781 396.1875 72.589844 380.648438 96.578125 C 378.125 100.46875 375.742188 104.144531 373.453125 107.800781 C 371.898438 110.355469 369.859375 112.984375 367.753906 115.789062 C 361.621094 123.882812 355.296875 132.257812 356.527344 141.066406 C 357.199219 145.738281 360.078125 150.082031 365.078125 153.832031 C 380.648438 165.570312 405.5625 154.347656 425.429688 145.332031 C 431.082031 142.78125 436.40625 140.367188 440.566406 138.980469 C 494.113281 121.140625 562.1875 118.339844 592.628906 164 C 619.972656 205 594.328125 276.15625 573.710938 333.320312 C 567.59375 350.320312 561.800781 366.382812 558.328125 379.398438 C 548.984375 414.46875 539.300781 450.757812 573.355469 481.003906 C 585.1875 491.527344 603.902344 497.800781 626.015625 498.671875 C 627.726562 498.671875 629.441406 498.78125 631.152344 498.78125 C 649.371094 498.78125 667.527344 495.027344 680.589844 488.503906 C 689.746094 483.929688 698.15625 477.875 706.28125 472.019531 C 713.503906 466.578125 721.078125 461.617188 728.953125 457.167969 C 751 445.230469 774.015625 435.179688 797.761719 427.125 Z M 797.761719 422.207031 " fill-opacity="1" fill-rule="nonzero"/></g><g clip-path="url(#e4cde40b92)"><path fill="#000000" d="M 797.761719 7.628906 L 797.386719 7.628906 C 797.386719 13.855469 793.867188 19.925781 787.035156 25.902344 C 755.71875 53.238281 713.382812 48.632812 672.398438 44.164062 C 652.390625 41.984375 631.714844 39.726562 613.042969 41.425781 C 596.648438 42.980469 582.617188 50.515625 569.039062 57.847656 C 555.460938 65.179688 542.960938 71.964844 528.027344 73.617188 C 508.515625 75.796875 487.542969 74.128906 471.972656 69.195312 C 450.71875 62.453125 438.835938 50.1875 436.65625 32.722656 C 435.597656 24.300781 437.21875 16.128906 439.242188 7.628906 L 434.445312 7.628906 C 432.5 15.957031 430.910156 24.503906 432.015625 33.3125 C 436.515625 69.601562 477.84375 79.234375 510.679688 79.234375 C 516.648438 79.234375 522.609375 78.914062 528.539062 78.269531 C 544.375 76.511719 558.046875 69.117188 571.265625 61.957031 C 585.03125 54.515625 598.035156 47.480469 613.464844 46.078125 C 631.667969 44.429688 651.207031 46.546875 671.886719 48.804688 C 713.929688 53.378906 757.308594 58.144531 790.117188 29.40625 C 793.039062 26.917969 795.609375 24.042969 797.761719 20.859375 Z M 797.761719 7.628906 " fill-opacity="1" fill-rule="nonzero"/></g><g clip-path="url(#aa4192d114)"><path fill="#000000" d="M 598.234375 7.628906 C 595.496094 8.53125 592.675781 9.464844 589.78125 10.460938 C 565.628906 18.617188 538.257812 27.882812 516.597656 14.914062 C 513.378906 13.085938 510.578125 10.605469 508.375 7.628906 L 502.800781 7.628906 C 505.480469 12.394531 509.445312 16.3125 514.246094 18.929688 C 522.578125 23.800781 532.09375 26.273438 541.746094 26.074219 C 558.1875 26.074219 575.394531 20.253906 591.277344 14.882812 C 596.273438 13.1875 601.007812 11.582031 605.554688 10.210938 C 609.4375 9.085938 613.390625 8.222656 617.386719 7.628906 Z M 598.234375 7.628906 " fill-opacity="1" fill-rule="nonzero"/></g><path fill="#000000" d="M 797.761719 119.710938 C 797.574219 120.332031 797.355469 120.972656 797.167969 121.609375 C 791.285156 142.21875 792.171875 165.195312 797.761719 187.972656 Z M 797.761719 119.710938 " fill-opacity="1" fill-rule="nonzero"/><path fill="#000000" d="M 797.761719 400.226562 L 795.363281 400.863281 C 784.464844 403.851562 774.65625 409.566406 765.234375 415.078125 C 760.5625 417.769531 755.890625 420.570312 751.035156 422.96875 C 723.191406 436.886719 658.089844 453.621094 633.722656 429.195312 C 578.054688 373.605469 612.65625 287.164062 637.910156 224.007812 C 639.734375 219.339844 642.050781 214.871094 644.496094 210 C 649.324219 200.488281 654.308594 190.648438 655.613281 180.21875 C 657.980469 161.289062 642.519531 150.640625 628.878906 141.160156 C 613.105469 130.265625 599.480469 120.925781 609.292969 101.230469 C 611.890625 96.015625 616.003906 91.113281 619.988281 86.351562 C 621.234375 84.792969 622.480469 83.375 623.664062 81.898438 C 629.488281 74.613281 640.230469 76.246094 649.699219 77.679688 C 651.347656 77.929688 652.9375 78.175781 654.460938 78.363281 C 675.1875 80.964844 723.738281 90.210938 727.070312 120.191406 C 729.53125 142.25 719.160156 158.425781 708.199219 175.535156 C 703.714844 182.285156 699.589844 189.261719 695.835938 196.441406 C 692.347656 203.492188 688.9375 210 685.652344 216.226562 C 663.742188 257.648438 649.277344 285.015625 679.828125 338.457031 C 687.097656 351.191406 702.746094 373.574219 725.808594 380.488281 C 744.804688 386.183594 771.476562 382.851562 797.777344 372.703125 L 797.777344 367.566406 C 771.882812 377.855469 745.320312 381.484375 727.148438 376.035156 C 705.644531 369.589844 690.804688 348.277344 683.875 336.152344 C 654.601562 284.9375 667.839844 259.875 689.777344 218.421875 C 693.09375 212.195312 696.519531 205.65625 700.039062 198.636719 C 703.699219 191.59375 707.734375 184.746094 712.121094 178.132812 C 723.019531 161.007812 734.324219 143.449219 731.695312 119.757812 C 728.003906 86.476562 676.855469 76.542969 655.039062 73.820312 C 653.480469 73.632812 651.925781 73.382812 650.367188 73.148438 C 640.183594 71.59375 627.492188 69.664062 619.972656 79.066406 C 618.820312 80.511719 617.605469 81.960938 616.375 83.4375 C 612.015625 88.246094 608.226562 93.542969 605.085938 99.222656 C 593.457031 122.464844 610.101562 133.96875 626.1875 145.085938 C 639.949219 154.609375 652.96875 163.59375 650.945312 179.722656 C 649.746094 189.339844 644.949219 198.804688 640.292969 207.960938 C 637.910156 212.628906 635.449219 217.53125 633.535156 222.296875 C 607.796875 286.632812 572.542969 374.726562 630.421875 432.558594 C 640.449219 442.597656 656.300781 446.367188 673.738281 446.367188 C 702.109375 446.367188 734.667969 436.371094 753.152344 427.15625 C 758.101562 424.679688 762.945312 421.847656 767.617188 419.109375 C 776.773438 413.738281 786.300781 408.210938 796.625 405.378906 L 797.792969 405.050781 Z M 797.761719 400.226562 " fill-opacity="1" fill-rule="nonzero"/><path fill="#000000" d="M 797.761719 734.773438 C 791.75 736.097656 785.757812 737.375 779.855469 738.617188 C 751.75 744.582031 725.214844 750.214844 707.449219 759.105469 C 694.125 765.757812 682.175781 774.871094 672.246094 785.972656 L 678.691406 785.972656 C 687.605469 776.703125 698.035156 769.027344 709.535156 763.277344 C 726.773438 754.667969 753.027344 749.09375 780.820312 743.195312 C 786.410156 742.011719 792.078125 740.796875 797.761719 739.554688 Z M 797.761719 734.773438 " fill-opacity="1" fill-rule="nonzero"/><path fill="#000000" d="M 499.066406 769.316406 C 493.691406 742.480469 466.800781 734.773438 443.007812 727.988281 C 425.195312 722.878906 408.363281 718.070312 403.972656 706.101562 C 400.328125 696.214844 405.09375 681.597656 418.546875 661.421875 C 424.699219 651.941406 433.3125 644.308594 443.460938 639.332031 C 456.789062 632.671875 468.59375 622.800781 479.523438 609.148438 C 482.949219 604.882812 485.363281 599.464844 487.699219 594.234375 C 493.257812 581.78125 498.597656 569.890625 516.957031 569.890625 C 519.714844 569.90625 522.46875 570.136719 525.191406 570.574219 C 539.207031 572.722656 546.492188 579.386719 554.234375 586.4375 C 565.988281 597.164062 578.148438 608.230469 613.511719 602.363281 C 649.574219 596.351562 688.25 579.105469 722.507812 563.894531 L 728.550781 561.203125 C 735.75 557.828125 742.75 554.03125 749.507812 549.839844 C 760.703125 543.191406 772.289062 536.296875 785.320312 533.710938 C 789.507812 532.871094 793.699219 532.25 797.777344 531.828125 L 797.777344 527.160156 C 793.324219 527.609375 788.839844 528.261719 784.339844 529.167969 C 770.574219 531.90625 758.648438 539.003906 747.109375 545.855469 C 740.507812 549.957031 733.671875 553.667969 726.632812 556.96875 L 720.578125 559.660156 C 686.679688 574.761719 648.234375 591.886719 612.75 597.785156 C 579.660156 603.3125 568.839844 593.457031 557.394531 583.011719 C 549.484375 575.804688 541.308594 568.363281 525.925781 565.980469 C 497.179688 561.546875 489.878906 577.921875 483.449219 592.367188 C 481.511719 597.292969 478.972656 601.960938 475.894531 606.269531 C 465.386719 619.375 454.097656 628.839844 441.390625 635.191406 C 430.546875 640.550781 421.335938 648.714844 414.71875 658.839844 C 400.175781 680.632812 395.378906 696.199219 399.628906 707.71875 C 404.84375 721.898438 422.78125 727.039062 441.765625 732.46875 C 465.308594 739.210938 489.660156 746.183594 494.472656 770.234375 C 495.503906 775.429688 496.199219 780.6875 496.542969 785.972656 L 501.214844 785.972656 C 500.863281 780.378906 500.144531 774.816406 499.066406 769.316406 Z M 499.066406 769.316406 " fill-opacity="1" fill-rule="nonzero"/><path fill="#000000" d="M 797.761719 692.867188 C 792.886719 694.9375 788.078125 697.023438 783.34375 699.09375 C 753.105469 712.21875 724.546875 724.609375 690.898438 731.347656 C 672.914062 734.945312 651.972656 738.511719 648.484375 738.167969 C 636.648438 729.996094 620.457031 701.835938 617.339844 689.210938 C 610.628906 662.386719 636.429688 643.550781 657.171875 628.421875 C 660.675781 625.851562 663.992188 623.441406 667.042969 621.058594 C 678.550781 612.121094 690.679688 610.597656 703.527344 608.976562 C 711.617188 608.222656 719.617188 606.65625 727.398438 604.308594 C 737.09375 600.785156 746.542969 596.628906 755.6875 591.855469 C 766.976562 586.28125 778.640625 580.523438 790.164062 577.640625 C 792.640625 577.019531 795.191406 576.550781 797.777344 576.164062 L 797.777344 571.492188 C 794.832031 571.902344 791.910156 572.460938 789.027344 573.175781 C 777.019531 576.179688 765.125 582.046875 753.617188 587.730469 C 744.664062 592.402344 735.410156 596.472656 725.917969 599.917969 C 718.425781 602.179688 710.726562 603.683594 702.933594 604.417969 C 690.027344 606.050781 676.699219 607.734375 664.179688 617.460938 C 661.1875 619.78125 657.949219 622.132812 654.414062 624.730469 C 632.617188 640.6875 605.335938 660.535156 612.808594 690.425781 C 616.234375 704.152344 632.914062 733.464844 646.195312 742.324219 C 646.476562 742.511719 646.925781 742.804688 649.027344 742.804688 C 653.15625 742.804688 663.695312 741.625 691.816406 736.003906 C 725.964844 729.167969 754.738281 716.683594 785.242188 703.453125 L 797.808594 698.035156 Z M 797.761719 692.867188 " fill-opacity="1" fill-rule="nonzero"/><path fill="#000000" d="M 797.761719 659.554688 C 792.109375 661.71875 786.519531 663.960938 780.976562 666.171875 C 757.820312 675.511719 733.859375 685.085938 708.445312 687.386719 C 691.085938 688.945312 680.636719 686.921875 679.765625 681.785156 C 677.914062 670.886719 710.796875 646.308594 730.199219 641.449219 C 748.761719 636.78125 768.457031 631.519531 786.769531 624.203125 C 789.523438 623.097656 793.308594 621.726562 797.761719 620.21875 L 797.761719 615.34375 C 792 617.257812 787.484375 618.878906 785.039062 619.859375 C 766.976562 627.082031 747.46875 632.3125 729.0625 636.984375 C 710.65625 641.652344 672.554688 667.261719 675.171875 682.625 C 676.589844 691.015625 688.019531 692.710938 697.671875 692.710938 C 702.21875 692.710938 706.359375 692.339844 708.867188 692.105469 C 734.964844 689.738281 759.238281 679.992188 782.71875 670.574219 C 787.6875 668.582031 792.699219 666.574219 797.761719 664.613281 Z M 797.761719 659.554688 " fill-opacity="1" fill-rule="nonzero"/><g clip-path="url(#94fd638f80)"><path fill="#000000" d="M 745.085938 785.972656 L 744.820312 785.972656 C 742.355469 785.390625 739.785156 785.417969 737.332031 786.050781 Z M 745.085938 785.972656 " fill-opacity="1" fill-rule="nonzero"/></g><path fill="#000000" d="M 797.761719 772.492188 C 792.617188 775.53125 788.582031 780.132812 786.238281 785.632812 C 786.195312 785.742188 786.160156 785.855469 786.128906 785.972656 L 791.207031 785.972656 C 792.777344 782.917969 795.015625 780.253906 797.761719 778.191406 Z M 797.761719 772.492188 " fill-opacity="1" fill-rule="nonzero"/><path fill="#000000" d="M 603.4375 725.058594 C 591.277344 715.953125 583.738281 707.082031 577.417969 694.425781 C 571.90625 683.402344 568.976562 671.648438 566.144531 660.285156 C 562.53125 645.746094 558.78125 630.710938 549.609375 616.949219 C 545.777344 611.203125 539.765625 607.886719 531.734375 607.078125 C 517.175781 605.648438 501.027344 612.949219 498.332031 615.640625 C 493.320312 620.652344 488.648438 624.746094 484.523438 628.359375 C 472.3125 639.070312 463.5 646.804688 458.628906 666.296875 C 454.796875 681.582031 473.449219 692.523438 493.195312 704.105469 C 510.105469 714.039062 527.589844 724.34375 530.113281 736.921875 C 531.5 743.398438 529.941406 757.953125 528.386719 774.734375 C 528.027344 778.359375 527.652344 782.128906 527.296875 785.972656 L 531.964844 785.972656 C 532.308594 782.285156 532.667969 778.671875 533.007812 775.183594 C 534.769531 757.300781 536.125 743.164062 534.738281 736.003906 C 531.796875 721.324219 513.390625 710.535156 495.59375 700.074219 C 477.390625 689.410156 460.214844 679.324219 463.191406 667.386719 C 467.707031 649.3125 475.644531 642.351562 487.636719 631.828125 C 491.808594 628.171875 496.542969 624.046875 501.648438 618.894531 C 503.394531 617.152344 516.054688 611.53125 527.933594 611.53125 C 529.070312 611.53125 530.191406 611.53125 531.296875 611.6875 C 537.851562 612.339844 542.726562 614.972656 545.746094 619.46875 C 554.464844 632.546875 557.9375 646.523438 561.628906 661.328125 C 564.523438 672.941406 567.5 684.945312 573.246094 696.433594 C 579.925781 709.789062 587.867188 719.144531 600.632812 728.71875 C 614.101562 738.804688 611.71875 764.429688 608.015625 785.894531 L 612.6875 785.894531 C 616.5625 763.464844 618.773438 736.5625 603.4375 725.058594 Z M 603.4375 725.058594 " fill-opacity="1" fill-rule="nonzero"/><g clip-path="url(#839525b2f7)"><path fill="#000000" d="M 477.328125 521.054688 C 457.195312 507.636719 426.488281 525.726562 396.796875 543.097656 C 380.070312 552.921875 364.269531 562.183594 352.449219 564.332031 C 321.121094 570.03125 292.671875 568.441406 259.632812 564.332031 C 252.78125 563.476562 244.964844 560.488281 236.710938 557.328125 C 222.152344 551.753906 207.125 546.011719 193.90625 550.414062 C 179.082031 555.351562 175.019531 584.664062 171.765625 608.199219 C 170.207031 618.910156 168.867188 629.042969 166.796875 633.292969 C 165.925781 634.289062 160.925781 636.9375 156.117188 639.519531 C 133.335938 651.648438 85.9375 676.878906 69.292969 721.699219 C 63.640625 736.90625 58.59375 755.804688 69.835938 767.027344 C 83.851562 781.039062 112.671875 767.339844 129.894531 759.167969 C 132.695312 757.828125 135.125 756.675781 137.105469 755.835938 C 173.789062 740.113281 224.875 725.042969 259.847656 742.527344 C 277.382812 751.289062 295.070312 768.585938 308.242188 786.003906 L 314.144531 786.003906 C 300.394531 767.042969 281.304688 748.035156 261.9375 738.355469 C 250.132812 732.453125 236.679688 730.058594 222.605469 730.058594 C 193.019531 730.058594 160.726562 740.628906 135.265625 751.539062 C 133.210938 752.410156 130.75 753.59375 127.886719 754.949219 C 111.769531 762.59375 84.800781 775.386719 73.136719 763.726562 C 63.796875 754.386719 68.46875 737.265625 73.667969 723.332031 C 89.707031 680.117188 136 655.476562 158.3125 643.613281 C 167.15625 638.945312 170.003906 637.386719 170.9375 635.457031 C 173.367188 630.585938 174.769531 620.496094 176.390625 608.820312 C 179.316406 587.730469 183.316406 558.835938 195.386719 554.820312 C 207 550.945312 221.25 556.378906 235.027344 561.671875 C 243.578125 564.9375 251.628906 568.019531 259.039062 568.957031 C 292.53125 573.128906 321.324219 574.730469 353.289062 568.957031 C 365.917969 566.667969 382.066406 557.1875 399.160156 547.160156 C 426.285156 531.238281 457.039062 513.179688 474.726562 524.964844 C 489.316406 534.691406 478.496094 555.566406 471.332031 569.375 C 470.585938 570.808594 469.886719 572.164062 469.261719 573.40625 C 460.011719 591.902344 432.75 625.773438 412.722656 634.664062 L 409.9375 635.894531 C 390.660156 644.390625 358.414062 658.621094 355.238281 680.882812 C 351 710.457031 377.90625 731.550781 406.386719 753.828125 C 419.558594 764.117188 432.859375 774.5625 443.070312 786.003906 L 449.300781 786.003906 C 438.507812 773.007812 423.703125 761.425781 409.28125 750.199219 C 381.894531 728.796875 356.03125 708.574219 359.875 681.613281 C 362.695312 661.90625 394.660156 647.800781 411.835938 640.234375 L 414.640625 638.992188 C 435.894531 629.542969 463.671875 595.109375 473.449219 575.554688 L 475.492188 571.585938 C 482.933594 557.140625 495.390625 533.105469 477.328125 521.054688 Z M 477.328125 521.054688 " fill-opacity="1" fill-rule="nonzero"/></g><path fill="#000000" d="M 373.90625 770.984375 C 367.382812 761.84375 361.589844 751.726562 355.984375 741.933594 C 352.496094 735.847656 348.882812 729.480469 345.085938 723.566406 C 338.390625 712.855469 335.398438 700.527344 332.519531 688.585938 C 329.3125 675.417969 326.011719 661.796875 317.726562 650.199219 C 306.25 634.117188 290.976562 626.847656 276.214844 619.6875 C 267.261719 615.375 257.980469 610.90625 249.417969 604.496094 C 246.644531 602.410156 243.59375 598.359375 240.371094 594.082031 C 232.273438 583.308594 222.183594 569.90625 208 576.957031 C 200.648438 580.628906 196.179688 585.144531 194.34375 590.765625 C 191.226562 600.105469 196.507812 610.253906 201.101562 619.175781 C 204.679688 626.101562 208.058594 632.671875 206.175781 636.453125 C 202.859375 643.085938 192.878906 646.214844 184.066406 648.90625 C 179.984375 650.050781 175.996094 651.507812 172.136719 653.265625 C 164.257812 657.203125 95.328125 692.632812 102.363281 722.972656 C 102.589844 724.296875 103.160156 725.539062 104.015625 726.574219 C 104.871094 727.605469 105.980469 728.402344 107.238281 728.875 C 116.769531 732.390625 136.621094 718.648438 157.859375 703.015625 C 161.609375 700.085938 165.511719 697.359375 169.554688 694.84375 C 198.609375 680.335938 241.023438 671.664062 265.484375 686.953125 C 311.125 715.472656 321.945312 735.675781 338.328125 766.25 C 341.597656 772.351562 345.085938 778.859375 349.085938 785.878906 L 354.472656 785.878906 C 349.925781 778.003906 346.050781 770.78125 342.4375 764.085938 C 326.304688 733.964844 314.660156 712.203125 267.960938 683.015625 C 257.667969 676.601562 245.320312 674.125 232.585938 674.125 C 208.339844 674.125 182.757812 683.078125 167.46875 690.703125 C 163.148438 693.3125 158.988281 696.175781 155.011719 699.28125 C 141.636719 709.136719 116.738281 727.457031 108.78125 724.515625 C 108.253906 724.304688 107.792969 723.953125 107.449219 723.5 C 107.105469 723.050781 106.894531 722.511719 106.835938 721.945312 C 101.773438 700.152344 148.65625 670.21875 174.148438 657.46875 C 177.789062 655.835938 181.546875 654.472656 185.390625 653.390625 C 195.074219 650.355469 206.066406 646.914062 210.300781 638.507812 C 213.261719 632.609375 209.351562 625.027344 205.210938 616.996094 C 201.070312 608.960938 196.289062 599.714844 198.75 592.179688 C 200.164062 587.824219 203.871094 584.195312 210.039062 581.113281 C 219.972656 576.132812 227.304688 584.492188 236.601562 596.820312 C 240.027344 601.382812 243.265625 605.691406 246.566406 608.167969 C 255.488281 614.863281 264.972656 619.421875 274.144531 623.828125 C 289.027344 630.988281 303.089844 637.746094 313.878906 652.84375 C 321.664062 663.742188 324.6875 676.304688 327.894531 689.628906 C 330.867188 701.929688 333.949219 714.628906 341.050781 725.980469 C 344.742188 731.878906 348.324219 738.136719 351.78125 744.191406 C 357.449219 754.078125 363.300781 764.304688 369.964844 773.628906 C 373.234375 777.960938 376.832031 782.039062 380.726562 785.816406 L 380.820312 785.910156 L 387.328125 785.910156 C 386.253906 784.773438 385.148438 783.652344 384.074219 782.546875 C 380.402344 778.949219 377 775.085938 373.90625 770.984375 Z M 373.90625 770.984375 " fill-opacity="1" fill-rule="nonzero"/><path fill="#000000" d="M 145.683594 780.960938 C 139.207031 781.683594 132.878906 783.375 126.90625 785.972656 L 143.128906 785.972656 C 144.109375 785.816406 145.089844 785.675781 146.058594 785.617188 C 155.152344 784.945312 164.292969 785.0625 173.367188 785.972656 L 200.960938 785.972656 C 182.914062 781.398438 164.257812 779.703125 145.683594 780.960938 Z M 145.683594 780.960938 " fill-opacity="1" fill-rule="nonzero"/><path fill="#000000" d="M 129.597656 535.65625 C 124.679688 533.011719 120.039062 530.503906 115.894531 528.015625 C 107.191406 522.585938 98.867188 516.566406 90.984375 510.003906 C 71.707031 494.671875 53.472656 480.175781 19.214844 482.417969 L 19.214844 487.089844 C 51.914062 484.878906 68.667969 498.21875 88.054688 513.660156 C 96.109375 520.347656 104.605469 526.484375 113.484375 532.03125 C 117.734375 534.566406 122.421875 537.089844 127.386719 539.8125 C 139.003906 546.039062 151.023438 552.546875 158.25 559.769531 C 159.636719 561.15625 159.355469 566.777344 159.214844 569.484375 C 159.214844 570.496094 159.121094 571.414062 159.121094 572.148438 C 159.121094 591.589844 153.96875 608.652344 128.820312 628.777344 C 124.148438 632.515625 118.464844 634.664062 112.453125 636.921875 C 105.929688 639.394531 99.171875 641.949219 93.660156 646.757812 C 52.382812 682.828125 8.488281 735.847656 29.429688 785.972656 L 34.539062 785.972656 C 12.816406 737.871094 56.136719 685.753906 96.820312 650.230469 C 101.679688 645.964844 107.722656 643.675781 114.183594 641.246094 C 120.273438 638.945312 126.640625 636.578125 131.808594 632.375 C 151.054688 616.980469 163.871094 600.851562 163.871094 572.101562 C 163.871094 571.429688 163.871094 570.542969 163.964844 569.671875 C 164.195312 565 164.476562 559.273438 161.628906 556.425781 C 153.84375 548.71875 141.527344 542.085938 129.597656 535.65625 Z M 129.597656 535.65625 " fill-opacity="1" fill-rule="nonzero"/><path fill="#000000" d="M 19.214844 660.550781 L 19.214844 665.796875 C 20.253906 666.417969 21.214844 667.160156 22.082031 668.007812 C 23.234375 669.175781 23.636719 671.804688 22.984375 675.402344 C 22.199219 679.535156 20.933594 683.5625 19.214844 687.402344 L 19.214844 698.128906 C 23.234375 690.640625 26.566406 682.484375 27.59375 676.148438 C 28.449219 670.871094 27.703125 667.027344 25.382812 664.707031 C 23.59375 662.960938 21.503906 661.554688 19.214844 660.550781 Z M 19.214844 660.550781 " fill-opacity="1" fill-rule="nonzero"/><path fill="#000000" d="M 70.773438 555.707031 C 67.65625 550.445312 64.449219 544.996094 58.160156 541.230469 C 48.941406 535.703125 35.253906 532.574219 19.230469 532.234375 L 19.230469 536.902344 C 33.339844 537.246094 46.761719 539.8125 55.777344 545.214844 C 61.039062 548.328125 63.8125 553 66.753906 558.074219 C 68.394531 561.003906 70.238281 563.8125 72.28125 566.480469 C 83.992188 581.113281 88.164062 592.945312 84.738281 601.660156 C 78.167969 618.007812 46.183594 622.800781 19.339844 626.367188 L 19.339844 631.035156 C 47.570312 627.285156 81.5 622.304688 89.113281 603.359375 C 93.347656 592.820312 89.113281 579.789062 76.050781 563.507812 C 74.105469 561.035156 72.34375 558.429688 70.773438 555.707031 Z M 70.773438 555.707031 " fill-opacity="1" fill-rule="nonzero"/><path fill="#000000" d="M 422.503906 231.074219 C 419.265625 229.878906 416.273438 228.523438 413.347656 227.214844 C 406.277344 224.023438 399.597656 220.988281 390.582031 220.210938 C 367.460938 218.109375 339.199219 222.5 309.347656 227.136719 C 257.527344 235.203125 203.933594 243.515625 165.226562 221.410156 C 136.917969 205.234375 123.027344 176.839844 109.589844 149.394531 C 96.511719 122.699219 84.179688 97.480469 59.761719 82.816406 C 48.410156 76 34.132812 73.476562 19.277344 73.882812 L 19.277344 78.550781 C 32.125 78.222656 46.09375 80.109375 57.441406 86.832031 C 80.707031 100.84375 92.757812 125.40625 105.511719 151.464844 C 119.257812 179.488281 133.539062 208.582031 163.027344 225.472656 C 203.171875 248.402344 260.019531 239.480469 310.191406 231.699219 C 339.773438 227.027344 367.800781 222.746094 390.285156 224.800781 C 398.523438 225.550781 404.859375 228.398438 411.554688 231.402344 C 414.53125 232.742188 417.613281 234.128906 420.976562 235.386719 C 453.269531 247.5 471.285156 259.160156 481.234375 274.398438 C 492.261719 291.289062 494.191406 313.738281 487.464844 347.207031 C 483.945312 364.75 477 378.589844 469.652344 393.238281 C 464.609375 402.824219 460.132812 412.703125 456.246094 422.8125 C 453.828125 429.898438 451.785156 437.105469 450.125 444.40625 C 446.417969 459.441406 442.589844 474.976562 432.53125 486.433594 C 403.210938 519.949219 359.472656 539.035156 306.046875 541.652344 C 260.550781 543.863281 209.507812 533.632812 166.035156 513.628906 C 150.011719 506.3125 134.753906 496.429688 120.039062 486.808594 C 100.183594 473.886719 79.773438 460.53125 56.585938 452.84375 C 45.6875 449.199219 33.042969 448.046875 19.214844 449.355469 L 19.214844 454.023438 C 32.609375 452.71875 44.738281 453.792969 55.152344 457.261719 C 77.714844 464.78125 97.941406 477.96875 117.4375 490.714844 C 132.339844 500.398438 147.675781 510.441406 164.027344 517.972656 C 204.710938 536.578125 248.867188 546.394531 293.605469 546.773438 C 297.863281 546.773438 302.074219 546.667969 306.234375 546.460938 C 360.949219 543.800781 405.890625 524.152344 436.003906 489.65625 C 446.808594 477.328125 450.78125 461.21875 454.609375 445.648438 C 456.226562 438.511719 458.222656 431.464844 460.589844 424.542969 C 464.414062 414.578125 468.820312 404.847656 473.777344 395.398438 C 480.941406 381.109375 488.367188 366.351562 491.996094 348.1875 C 498.957031 313.425781 496.808594 289.902344 485.066406 271.90625 C 474.539062 255.765625 455.855469 243.5625 422.503906 231.074219 Z M 422.503906 231.074219 " fill-opacity="1" fill-rule="nonzero"/><path fill="#000000" d="M 351.980469 262.925781 C 331.847656 257.898438 311.652344 261.089844 292.113281 264.171875 C 286.273438 265.089844 280.246094 266.039062 274.359375 266.753906 C 269.425781 267.347656 264.457031 267.96875 259.476562 268.59375 C 219.378906 273.621094 177.929688 278.820312 138.644531 269.898438 C 107.003906 262.753906 69.417969 235.902344 61.257812 203.414062 C 59.109375 194.820312 59.390625 184.734375 59.699219 173.835938 C 60.339844 150.921875 61.070312 124.941406 34.226562 114.867188 C 29.40625 113.160156 24.332031 112.289062 19.214844 112.300781 L 19.214844 116.96875 C 23.78125 116.964844 28.3125 117.75 32.609375 119.289062 C 56.320312 128.195312 55.699219 150.316406 55.046875 173.773438 C 54.75 184.375 54.453125 195.320312 56.757812 204.550781 C 61.863281 224.957031 76.640625 240.355469 88.148438 249.695312 C 102.800781 261.617188 120.847656 270.632812 137.617188 274.445312 C 177.695312 283.550781 219.566406 278.304688 260.050781 273.230469 C 265.035156 272.59375 270 271.984375 274.90625 271.394531 C 280.886719 270.679688 286.957031 269.714844 292.84375 268.777344 C 311.917969 265.773438 331.648438 262.660156 350.84375 267.457031 C 370.667969 272.40625 391.128906 285.296875 405.578125 301.9375 C 421.445312 320.179688 428.652344 340.855469 425.820312 360.234375 C 421.476562 390.699219 404.285156 417.332031 374.714844 439.375 C 321.773438 478.808594 243.921875 491.992188 194.25 484.644531 C 171.8125 481.359375 150.867188 470.773438 130.59375 460.625 C 122.980469 456.78125 115.023438 452.84375 107.238281 449.277344 C 95.015625 443.78125 84.117188 433.710938 72.5625 423.09375 C 56.585938 408.195312 40.019531 393.003906 19.214844 390.261719 L 19.214844 395.027344 C 38.429688 397.890625 54.140625 412.367188 69.449219 426.378906 C 80.753906 436.808594 92.460938 447.597656 105.371094 453.402344 C 113.15625 456.875 120.941406 460.828125 128.492188 464.65625 C 149.09375 475.054688 170.378906 485.8125 193.625 489.253906 C 244.246094 496.742188 323.675781 483.304688 377.582031 443.113281 C 407.742188 420.617188 426.039062 392.179688 430.523438 360.871094 C 433.464844 340.167969 425.851562 318.140625 409.113281 298.855469 C 394.054688 281.605469 372.675781 268.15625 351.980469 262.925781 Z M 351.980469 262.925781 " fill-opacity="1" fill-rule="nonzero"/><path fill="#000000" d="M 237.535156 316.570312 C 227.648438 312.617188 217.292969 308.785156 207.3125 305.097656 C 187.382812 297.703125 166.671875 290.058594 148.453125 280.984375 C 142.664062 278.089844 135.0625 278.382812 127.714844 278.679688 C 123.5625 279 119.394531 278.921875 115.257812 278.445312 C 104.546875 276.65625 91.417969 269.371094 81.171875 263.238281 C 63.109375 252.339844 41.1875 226.21875 37.292969 202.824219 C 36.4375 197.730469 35.984375 192.300781 35.488281 186.554688 C 34.070312 169.523438 32.453125 150.484375 19.214844 139.667969 L 19.214844 146.171875 C 28.230469 156.121094 29.570312 171.734375 30.863281 186.976562 C 31.363281 192.8125 31.84375 198.324219 32.714844 203.601562 C 36.84375 228.320312 59.839844 255.890625 78.804688 267.253906 C 89.394531 273.605469 103.019531 281.15625 114.527344 283.070312 C 118.984375 283.601562 123.484375 283.699219 127.964844 283.367188 C 134.722656 283.101562 141.710938 282.820312 146.429688 285.171875 C 164.804688 294.355469 185.589844 302.046875 205.695312 309.488281 C 215.660156 313.175781 225.9375 316.988281 235.808594 320.929688 C 254.992188 328.601562 287.9375 355.75 282.519531 380.285156 C 278.785156 397.128906 264.363281 408.851562 252.9375 415.699219 C 238.960938 423.859375 223.601562 429.375 207.625 431.96875 C 165.753906 438.410156 99.71875 403.121094 51.511719 377.375 C 41.636719 372.097656 32.328125 367.128906 24.433594 363.175781 C 22.671875 362.289062 20.929688 361.433594 19.214844 360.59375 L 19.214844 365.808594 L 22.332031 367.363281 C 30.117188 371.289062 39.457031 376.253906 49.285156 381.5 C 94.035156 405.410156 153.9375 437.414062 197.050781 437.414062 C 200.820312 437.429688 204.582031 437.152344 208.308594 436.589844 C 235.964844 432.339844 279.734375 414.113281 287.019531 381.296875 C 293.140625 353.820312 258.601562 324.992188 237.535156 316.570312 Z M 237.535156 316.570312 " fill-opacity="1" fill-rule="nonzero"/><path fill="#000000" d="M 134.535156 303.398438 L 131.421875 302.574219 L 121.734375 299.992188 C 94.175781 292.675781 56.429688 282.664062 37.652344 266.617188 C 30.738281 260.574219 24.105469 250.160156 19.214844 239.390625 L 19.214844 249.835938 C 23.683594 257.914062 29.027344 265.246094 34.789062 270.070312 C 54.328125 286.804688 92.664062 296.988281 120.660156 304.410156 C 124.070312 305.316406 127.308594 306.171875 130.316406 306.996094 L 133.429688 307.820312 C 149.902344 312.210938 164.136719 316.007812 160.476562 336.121094 C 158.917969 344.261719 153.984375 351.394531 145.980469 356.746094 C 133.910156 364.828125 115.507812 368.328125 101.210938 365.261719 C 78.589844 360.515625 56.585938 342.488281 35.394531 325.039062 C 29.945312 320.570312 24.496094 316.148438 19.214844 311.976562 L 19.214844 317.925781 C 23.578125 321.394531 27.984375 325.007812 32.4375 328.648438 C 54.09375 346.441406 76.5 364.84375 100.136719 369.902344 C 104.121094 370.742188 108.183594 371.152344 112.253906 371.132812 C 125.070312 371.179688 137.628906 367.558594 148.453125 360.703125 C 157.53125 354.628906 163.230469 346.441406 164.945312 337.023438 C 169.414062 312.738281 150.882812 307.742188 134.535156 303.398438 Z M 134.535156 303.398438 " fill-opacity="1" fill-rule="nonzero"/><path fill="#000000" d="M 343.964844 1416.234375 C 319.359375 1416.234375 311.980469 1400.933594 303.480469 1371.605469 C 302.949219 1369.578125 302.820312 1367.464844 303.109375 1365.390625 C 303.394531 1363.316406 304.085938 1361.316406 305.144531 1359.507812 C 306.257812 1357.238281 308.222656 1355.5 310.609375 1354.667969 C 320.886719 1352.101562 331.429688 1351.914062 341.628906 1351.726562 C 355.640625 1351.476562 368.90625 1351.242188 381.925781 1345.5 C 386.242188 1343.347656 390.402344 1340.902344 394.382812 1338.183594 C 406.277344 1330.539062 419.746094 1321.882812 431.890625 1325.933594 C 440.066406 1328.65625 444.582031 1332.640625 445.328125 1337.777344 C 447.058594 1349.6875 427.328125 1363.464844 414.28125 1372.585938 C 411.960938 1374.140625 409.953125 1375.605469 408.394531 1376.773438 C 403.273438 1380.855469 398.410156 1385.253906 393.835938 1389.941406 C 382.671875 1400.839844 369.996094 1413.292969 355.097656 1415.394531 C 351.410156 1415.9375 347.6875 1416.21875 343.964844 1416.234375 Z M 311.761719 1359.199219 C 310.640625 1359.765625 309.742188 1360.691406 309.207031 1361.828125 C 307.71875 1364.390625 307.28125 1367.433594 307.996094 1370.3125 C 317.460938 1403.113281 323.9375 1415.113281 354.519531 1410.785156 C 367.910156 1408.886719 379.433594 1397.570312 390.644531 1386.628906 C 395.363281 1381.789062 400.382812 1377.257812 405.671875 1373.054688 C 407.226562 1371.839844 409.328125 1370.421875 411.679688 1368.773438 C 422.316406 1361.347656 442.089844 1347.523438 440.78125 1338.464844 C 440.300781 1335.210938 436.84375 1332.5 430.492188 1330.382812 C 420.464844 1327.035156 407.992188 1335.054688 396.980469 1342.121094 C 392.796875 1344.988281 388.410156 1347.546875 383.855469 1349.78125 C 369.964844 1356.007812 355.625 1356.210938 341.8125 1356.457031 C 331.816406 1356.566406 321.527344 1356.816406 311.761719 1359.199219 Z M 311.761719 1359.199219 " fill-opacity="1" fill-rule="nonzero"/><path fill="#000000" d="M 757.992188 1110.71875 C 751.277344 1110.679688 744.742188 1108.535156 739.308594 1104.585938 C 719.066406 1090.3125 710.59375 1055.878906 708.960938 1039.65625 C 706.703125 1017.039062 715.40625 998.917969 723.816406 981.421875 C 728.363281 971.957031 733.050781 962.179688 736.054688 951.6875 C 738.578125 942.878906 738.824219 931.605469 739.167969 919.683594 C 739.808594 892.128906 740.539062 860.902344 770.714844 850.84375 C 777.410156 848.605469 780.058594 849.925781 782.6875 851.855469 C 783.015625 852.089844 783.34375 852.339844 783.699219 852.574219 C 783.855469 852.667969 784 852.777344 784.136719 852.898438 L 787.0625 855.890625 C 787.171875 855.988281 787.265625 856.097656 787.34375 856.214844 C 791.191406 861.929688 789.539062 873.246094 787.609375 879.050781 C 779.480469 903.414062 771.183594 932.527344 771.183594 963.660156 C 771.183594 978.480469 777.925781 989.953125 785.070312 1002.109375 C 796.578125 1021.707031 809.625 1043.921875 793.667969 1083.835938 C 788.125 1097.691406 778.828125 1106.609375 766.804688 1109.613281 C 763.925781 1110.34375 760.964844 1110.714844 757.992188 1110.71875 Z M 776.476562 854.332031 C 774.96875 854.421875 773.484375 854.734375 772.070312 855.265625 C 745.007812 864.296875 744.351562 892.503906 743.714844 919.792969 C 743.433594 932.027344 743.171875 943.578125 740.476562 952.980469 C 737.363281 963.878906 732.582031 973.808594 728.019531 983.429688 C 719.519531 1001.144531 711.484375 1017.863281 713.617188 1039.191406 C 715.421875 1057.183594 724.515625 1088.429688 741.988281 1100.757812 C 745.347656 1103.199219 749.214844 1104.859375 753.304688 1105.609375 C 757.390625 1106.359375 761.597656 1106.179688 765.609375 1105.085938 C 778.890625 1101.769531 785.851562 1090.746094 789.261719 1082.09375 C 804.378906 1044.3125 792.484375 1024.058594 780.976562 1004.476562 C 773.828125 992.316406 766.449219 979.753906 766.449219 963.660156 C 766.449219 931.855469 774.871094 902.292969 783.109375 877.574219 C 784.882812 872.265625 785.972656 862.957031 783.515625 859.003906 L 780.929688 856.371094 C 780.570312 856.136719 780.230469 855.890625 779.886719 855.640625 C 778.949219 854.800781 777.734375 854.335938 776.476562 854.332031 Z M 776.476562 854.332031 " fill-opacity="1" fill-rule="nonzero"/><path fill="#000000" d="M 336.863281 1208.136719 C 335.886719 1208.140625 334.914062 1208.070312 333.949219 1207.933594 C 326.664062 1206.890625 321.496094 1201.988281 318.628906 1193.347656 C 315.765625 1184.707031 320.839844 1176.425781 325.761719 1168.441406 C 328.875 1163.429688 331.753906 1158.679688 332.488281 1154.261719 C 338.964844 1115.34375 316.355469 1089.96875 265.269531 1078.621094 L 263.148438 1078.152344 C 255.582031 1076.488281 247.765625 1074.777344 241.023438 1070.882812 C 240.539062 1070.601562 240.09375 1070.253906 239.699219 1069.855469 C 238.808594 1068.996094 238.191406 1067.890625 237.933594 1066.679688 C 237.671875 1065.472656 237.777344 1064.210938 238.238281 1063.0625 C 238.699219 1061.914062 239.488281 1060.925781 240.511719 1060.226562 C 241.535156 1059.53125 242.746094 1059.152344 243.980469 1059.148438 C 255.441406 1058.851562 265.300781 1058.011719 274.003906 1057.277344 C 302.792969 1054.867188 323.582031 1053.121094 367.554688 1072.660156 C 396.671875 1085.59375 406.480469 1108.601562 398.351562 1145.074219 C 395.855469 1156.4375 391.261719 1167.234375 384.804688 1176.910156 C 378.5 1185.984375 355.035156 1208.136719 336.863281 1208.136719 Z M 299.789062 1060.453125 C 291.613281 1060.453125 283.484375 1061.140625 274.40625 1061.902344 C 265.640625 1062.648438 255.722656 1063.457031 244.105469 1063.785156 C 243.78125 1063.765625 243.457031 1063.847656 243.179688 1064.023438 C 242.902344 1064.195312 242.6875 1064.453125 242.566406 1064.757812 C 242.445312 1065.058594 242.421875 1065.394531 242.5 1065.710938 C 242.578125 1066.027344 242.753906 1066.3125 243 1066.523438 C 243.109375 1066.632812 243.230469 1066.722656 243.359375 1066.804688 C 249.480469 1070.339844 256.9375 1071.972656 264.148438 1073.5625 L 266.28125 1074.027344 C 320.234375 1086.015625 344.132812 1113.257812 337.097656 1154.976562 C 336.207031 1160.300781 332.921875 1165.640625 329.746094 1170.824219 C 325.167969 1178.25 320.855469 1185.269531 323.050781 1191.839844 C 325.355469 1198.75 329.140625 1202.488281 334.621094 1203.28125 C 350.097656 1205.507812 374.433594 1183.621094 380.960938 1174.203125 C 387.046875 1165 391.394531 1154.765625 393.789062 1144 C 401.433594 1109.613281 392.761719 1088.894531 365.652344 1076.863281 C 336.164062 1063.785156 317.835938 1060.453125 299.789062 1060.453125 Z M 299.789062 1060.453125 " fill-opacity="1" fill-rule="nonzero"/><g clip-path="url(#d14128e2e7)"><path fill="#000000" d="M 268.164062 793.980469 C 264.832031 799.597656 261.375 805.421875 261.375 812.660156 C 261.375 818.339844 263.757812 823.433594 266.046875 828.367188 C 267.960938 831.988281 269.371094 835.851562 270.234375 839.855469 C 272.027344 850.753906 265.5625 860.09375 259.925781 866.117188 C 242.707031 884.25 207.125 897.855469 183.785156 895.242188 C 172.027344 893.917969 164.289062 889.980469 160.132812 883.222656 C 152.003906 870.039062 159.042969 848.121094 166.269531 828.617188 C 167.359375 825.6875 168.417969 822.484375 169.539062 819.089844 C 173.445312 807.304688 177.867188 793.933594 185.109375 786.523438 C 185.886719 785.746094 186.820312 784.84375 187.878906 783.828125 C 190.105469 781.667969 192.800781 779.066406 195.464844 776.171875 L 189.09375 776.171875 C 187.539062 777.726562 185.980469 779.191406 184.71875 780.46875 C 183.644531 781.511719 182.679688 782.445312 181.886719 783.238281 C 173.789062 791.425781 169.179688 805.34375 165.117188 817.625 C 164.011719 820.988281 162.96875 824.148438 161.90625 826.964844 C 154.292969 847.53125 146.898438 870.691406 156.242188 885.667969 C 161.144531 893.625 170.253906 898.402344 183.363281 899.882812 C 185.492188 900.117188 187.625 900.230469 189.765625 900.222656 C 214.023438 900.222656 246.832031 886.773438 263.414062 869.324219 C 272.617188 859.640625 276.601562 849.195312 274.9375 839.109375 C 274.007812 834.679688 272.472656 830.398438 270.375 826.390625 C 268.195312 821.71875 266.125 817.3125 266.125 812.660156 C 266.125 806.699219 269.097656 801.761719 272.257812 796.359375 C 275.667969 790.601562 279.4375 784.203125 279.15625 776.125 L 274.484375 776.125 C 274.71875 782.878906 271.464844 788.296875 268.164062 793.980469 Z M 268.164062 793.980469 " fill-opacity="1" fill-rule="nonzero"/></g><g clip-path="url(#9eaea22d60)"><path fill="#000000" d="M 98.816406 794.246094 C 104.359375 798.292969 111.644531 799.210938 120.457031 796.984375 C 127.902344 795.101562 136.214844 786.617188 145.652344 776.171875 L 139.316406 776.171875 C 131.761719 784.375 124.789062 791.070312 119.320312 792.453125 C 111.800781 794.351562 106.007812 793.699219 101.570312 790.476562 C 97.460938 787.457031 94.78125 782.398438 92.960938 776.171875 L 88.054688 776.171875 C 90.109375 783.800781 93.378906 790.273438 98.816406 794.246094 Z M 98.816406 794.246094 " fill-opacity="1" fill-rule="nonzero"/></g><g clip-path="url(#50500e1525)"><path fill="#000000" d="M 315.0625 810.527344 C 313.632812 820.023438 311.390625 832.320312 306.6875 843.21875 C 298.539062 861.667969 287.953125 878.945312 275.21875 894.589844 C 268.988281 902.230469 260.378906 908.910156 252 915.386719 C 249.710938 917.144531 247.46875 918.871094 245.335938 920.601562 C 237.769531 926.734375 229.082031 931.332031 219.753906 934.144531 C 168.695312 949.570312 145.230469 908.273438 122.546875 868.328125 C 105.183594 837.785156 88.789062 808.863281 60.976562 805.453125 C 46.964844 803.707031 33.058594 805.34375 19.214844 808.410156 L 19.214844 813.203125 C 32.964844 810.089844 46.777344 808.378906 60.402344 810.089844 C 85.890625 813.203125 101.726562 841.132812 118.480469 870.632812 C 137.710938 904.488281 159.136719 942.238281 199.089844 942.238281 C 206.570312 942.164062 214 940.992188 221.140625 938.769531 C 231.042969 935.792969 240.269531 930.914062 248.296875 924.398438 C 250.414062 922.703125 252.640625 920.988281 254.898438 919.230469 C 263.492188 912.597656 272.367188 905.75 278.890625 897.6875 C 291.902344 881.679688 302.710938 864.003906 311.03125 845.132812 C 315.949219 833.675781 318.253906 820.988281 319.71875 811.210938 C 321.695312 799.625 321.820312 787.796875 320.09375 776.171875 L 315.421875 776.171875 C 317.070312 785.714844 317.132812 796.96875 315.0625 810.527344 Z M 315.0625 810.527344 " fill-opacity="1" fill-rule="nonzero"/></g><g clip-path="url(#ab17313330)"><path fill="#000000" d="M 797.761719 1268.085938 C 791.949219 1267.640625 786.113281 1267.570312 780.292969 1267.867188 C 748.898438 1269.71875 720.714844 1284.992188 693.453125 1299.6875 C 673.769531 1310.316406 653.402344 1321.324219 632.242188 1326.960938 C 580.097656 1340.875 538.304688 1324.546875 511.414062 1279.730469 C 502.863281 1265.5 496.933594 1254.277344 498.316406 1239.117188 C 500.296875 1217.320312 508.21875 1198.640625 516.613281 1178.949219 C 520.785156 1169.140625 525.097656 1158.992188 528.617188 1148.421875 C 533.460938 1133.882812 534.191406 1119.949219 534.972656 1105.195312 C 535.21875 1100.523438 535.46875 1095.542969 535.890625 1090.652344 C 536.605469 1081.921875 539.378906 1073.078125 542.117188 1064.53125 C 544.335938 1057.929688 546.148438 1051.199219 547.539062 1044.375 C 551.820312 1020.867188 540.046875 979.148438 523.761719 960.171875 C 503.207031 936.183594 473.433594 925.832031 435.285156 929.394531 C 396.515625 933.023438 361.292969 949.898438 343.746094 959.644531 C 317.664062 974.136719 271.496094 995.445312 255.472656 975.429688 C 254.496094 974.234375 253.78125 972.847656 253.378906 971.359375 C 252.976562 969.867188 252.894531 968.3125 253.136719 966.789062 C 254.492188 956.046875 267.914062 943.4375 275.621094 937.617188 C 281.632812 933.117188 288.078125 928.632812 294.308594 924.304688 C 324.765625 903.164062 356.25 881.292969 362.398438 841.320312 C 366.246094 816.285156 363.566406 796.453125 355.796875 776.234375 L 350.753906 776.234375 C 358.753906 796.359375 361.652344 815.898438 357.773438 840.601562 C 351.875 878.539062 321.292969 899.820312 291.582031 920.414062 C 285.355469 924.757812 278.832031 929.269531 272.757812 933.816406 C 270.46875 935.546875 250.367188 950.941406 248.4375 966.132812 C 248.113281 968.277344 248.246094 970.464844 248.820312 972.558594 C 249.394531 974.648438 250.398438 976.59375 251.769531 978.277344 C 260.332031 988.988281 276.386719 990.964844 299.507812 984.144531 C 313.070312 980.144531 328.6875 973.25 345.957031 963.660156 C 363.222656 954.070312 397.730469 937.523438 435.660156 933.988281 C 472.207031 930.5625 500.636719 940.386719 520.164062 963.144531 C 535.421875 980.9375 546.882812 1021.488281 542.882812 1043.46875 C 541.519531 1050.105469 539.757812 1056.648438 537.601562 1063.070312 C 534.847656 1071.863281 531.996094 1080.957031 531.234375 1090.203125 C 530.8125 1095.167969 530.550781 1100.117188 530.300781 1104.898438 C 529.554688 1119.328125 528.835938 1132.917969 524.179688 1146.929688 C 520.722656 1157.3125 516.394531 1167.367188 512.316406 1177.082031 C 504.15625 1196.289062 495.703125 1216.152344 493.628906 1238.664062 C 492.074219 1255.195312 498.660156 1267.601562 507.363281 1282.09375 C 528.960938 1318.070312 559.699219 1336.46875 597.472656 1336.46875 C 609.621094 1336.371094 621.703125 1334.679688 633.410156 1331.441406 C 655.117188 1325.667969 675.71875 1314.519531 695.695312 1303.765625 C 722.507812 1289.273438 750.191406 1274.28125 780.585938 1272.507812 C 786.296875 1272.210938 792.015625 1272.285156 797.714844 1272.722656 Z M 797.761719 1268.085938 " fill-opacity="1" fill-rule="nonzero"/></g><g clip-path="url(#7231f28c03)"><path fill="#000000" d="M 797.761719 1190.75 C 773.242188 1198.949219 749.484375 1209.273438 726.757812 1221.601562 C 718.695312 1226.136719 710.941406 1231.207031 703.558594 1236.78125 C 695.570312 1242.523438 687.316406 1248.472656 678.503906 1252.875 C 650.570312 1266.886719 599.902344 1266.886719 576.453125 1246.058594 C 544.5625 1217.710938 553.859375 1182.855469 562.84375 1149.136719 C 566.269531 1136.3125 572.015625 1120.355469 578.117188 1103.449219 C 599.078125 1045.292969 625.171875 972.90625 596.523438 929.941406 C 564.617188 882.105469 494.285156 884.703125 439.101562 903.085938 C 434.710938 904.550781 429.261719 907.011719 423.53125 909.625 C 405.703125 917.675781 381.332031 928.726562 367.878906 918.640625 C 363.847656 915.621094 361.652344 912.414062 361.152344 908.957031 C 360.1875 902.074219 365.933594 894.480469 371.476562 887.164062 C 373.65625 884.296875 375.710938 881.574219 377.410156 878.851562 C 379.683594 875.222656 382.082031 871.566406 384.570312 867.6875 C 400.53125 843.046875 418.640625 815.136719 415.324219 785.183594 C 414.976562 782.140625 414.398438 779.128906 413.597656 776.171875 L 408.753906 776.171875 C 409.660156 779.296875 410.308594 782.496094 410.683594 785.730469 C 413.796875 813.96875 396.1875 841.132812 380.648438 865.121094 C 378.125 869.011719 375.742188 872.6875 373.453125 876.34375 C 371.898438 878.898438 369.859375 881.527344 367.753906 884.328125 C 361.621094 892.425781 355.296875 900.800781 356.527344 909.609375 C 357.199219 914.28125 360.078125 918.625 365.078125 922.375 C 380.648438 934.113281 405.5625 922.890625 425.429688 913.875 C 431.082031 911.324219 436.40625 908.910156 440.566406 907.523438 C 494.113281 889.683594 562.1875 886.882812 592.628906 932.542969 C 619.972656 973.542969 594.328125 1044.699219 573.710938 1101.863281 C 567.59375 1118.859375 561.800781 1134.925781 558.328125 1147.941406 C 548.984375 1183.011719 539.300781 1219.296875 573.355469 1249.546875 C 585.1875 1260.066406 603.902344 1266.339844 626.015625 1267.214844 C 627.726562 1267.214844 629.441406 1267.324219 631.152344 1267.324219 C 649.371094 1267.324219 667.527344 1263.570312 680.589844 1257.046875 C 689.746094 1252.472656 698.15625 1246.417969 706.28125 1240.5625 C 713.503906 1235.121094 721.078125 1230.15625 728.953125 1225.710938 C 751 1213.773438 774.015625 1203.722656 797.761719 1195.667969 Z M 797.761719 1190.75 " fill-opacity="1" fill-rule="nonzero"/></g><g clip-path="url(#976229c986)"><path fill="#000000" d="M 797.761719 776.171875 L 797.386719 776.171875 C 797.386719 782.398438 793.867188 788.46875 787.035156 794.445312 C 755.71875 821.78125 713.382812 817.175781 672.398438 812.707031 C 652.390625 810.527344 631.714844 808.269531 613.042969 809.964844 C 596.648438 811.523438 582.617188 819.058594 569.039062 826.390625 C 555.460938 833.722656 542.960938 840.507812 528.027344 842.160156 C 508.515625 844.339844 487.542969 842.671875 471.972656 837.738281 C 450.71875 830.996094 438.835938 818.730469 436.65625 801.265625 C 435.597656 792.84375 437.21875 784.671875 439.242188 776.171875 L 434.445312 776.171875 C 432.5 784.5 430.910156 793.046875 432.015625 801.855469 C 436.515625 838.144531 477.84375 847.777344 510.679688 847.777344 C 516.648438 847.777344 522.609375 847.457031 528.539062 846.8125 C 544.375 845.054688 558.046875 837.660156 571.265625 830.5 C 585.03125 823.058594 598.035156 816.023438 613.464844 814.621094 C 631.667969 812.972656 651.207031 815.089844 671.886719 817.34375 C 713.929688 821.921875 757.308594 826.6875 790.117188 797.949219 C 793.039062 795.460938 795.609375 792.585938 797.761719 789.402344 Z M 797.761719 776.171875 " fill-opacity="1" fill-rule="nonzero"/></g><g clip-path="url(#8ca6e545c9)"><path fill="#000000" d="M 598.234375 776.171875 C 595.496094 777.074219 592.675781 778.007812 589.78125 779.003906 C 565.628906 787.160156 538.257812 796.421875 516.597656 783.457031 C 513.378906 781.628906 510.578125 779.148438 508.375 776.171875 L 502.800781 776.171875 C 505.480469 780.9375 509.445312 784.855469 514.246094 787.472656 C 522.578125 792.34375 532.09375 794.816406 541.746094 794.617188 C 558.1875 794.617188 575.394531 788.796875 591.277344 783.425781 C 596.273438 781.726562 601.007812 780.125 605.554688 778.753906 C 609.4375 777.628906 613.390625 776.765625 617.386719 776.171875 Z M 598.234375 776.171875 " fill-opacity="1" fill-rule="nonzero"/></g><path fill="#000000" d="M 797.761719 888.253906 C 797.574219 888.875 797.355469 889.511719 797.167969 890.152344 C 791.285156 910.761719 792.171875 933.738281 797.761719 956.515625 Z M 797.761719 888.253906 " fill-opacity="1" fill-rule="nonzero"/><path fill="#000000" d="M 797.761719 1168.769531 L 795.363281 1169.40625 C 784.464844 1172.394531 774.65625 1178.109375 765.234375 1183.621094 C 760.5625 1186.3125 755.890625 1189.113281 751.035156 1191.511719 C 723.191406 1205.429688 658.089844 1222.164062 633.722656 1197.738281 C 578.054688 1142.148438 612.65625 1055.707031 637.910156 992.550781 C 639.734375 987.882812 642.050781 983.414062 644.496094 978.542969 C 649.324219 969.03125 654.308594 959.191406 655.613281 948.761719 C 657.980469 929.832031 642.519531 919.183594 628.878906 909.703125 C 613.105469 898.808594 599.480469 889.46875 609.292969 869.773438 C 611.890625 864.558594 616.003906 859.65625 619.988281 854.894531 C 621.234375 853.335938 622.480469 851.917969 623.664062 850.441406 C 629.488281 843.15625 640.230469 844.789062 649.699219 846.222656 C 651.347656 846.472656 652.9375 846.71875 654.460938 846.90625 C 675.1875 849.507812 723.738281 858.753906 727.070312 888.734375 C 729.53125 910.792969 719.160156 926.96875 708.199219 944.074219 C 703.714844 950.824219 699.589844 957.804688 695.835938 964.980469 C 692.347656 972.035156 688.9375 978.542969 685.652344 984.769531 C 663.742188 1026.191406 649.277344 1053.558594 679.828125 1107 C 687.097656 1119.734375 702.746094 1142.117188 725.808594 1149.03125 C 744.804688 1154.726562 771.476562 1151.394531 797.777344 1141.246094 L 797.777344 1136.109375 C 771.882812 1146.398438 745.320312 1150.027344 727.148438 1144.578125 C 705.644531 1138.132812 690.804688 1116.820312 683.875 1104.695312 C 654.601562 1053.480469 667.839844 1028.417969 689.777344 986.960938 C 693.09375 980.734375 696.519531 974.199219 700.039062 967.175781 C 703.699219 960.136719 707.734375 953.289062 712.121094 946.675781 C 723.019531 929.550781 734.324219 911.992188 731.695312 888.300781 C 728.003906 855.015625 676.855469 845.085938 655.039062 842.363281 C 653.480469 842.175781 651.925781 841.925781 650.367188 841.691406 C 640.183594 840.136719 627.492188 838.203125 619.972656 847.609375 C 618.820312 849.054688 617.605469 850.503906 616.375 851.980469 C 612.015625 856.789062 608.226562 862.085938 605.085938 867.765625 C 593.457031 891.007812 610.101562 902.511719 626.1875 913.625 C 639.949219 923.152344 652.96875 932.136719 650.945312 948.261719 C 649.746094 957.882812 644.949219 967.347656 640.292969 976.5 C 637.910156 981.171875 635.449219 986.074219 633.535156 990.839844 C 607.796875 1055.175781 572.542969 1143.269531 630.421875 1201.101562 C 640.449219 1211.140625 656.300781 1214.910156 673.738281 1214.910156 C 702.109375 1214.910156 734.667969 1204.914062 753.152344 1195.699219 C 758.101562 1193.222656 762.945312 1190.390625 767.617188 1187.652344 C 776.773438 1182.28125 786.300781 1176.753906 796.625 1173.921875 L 797.792969 1173.59375 Z M 797.761719 1168.769531 " fill-opacity="1" fill-rule="nonzero"/><path fill="#000000" d="M 499.066406 1537.859375 C 493.691406 1511.023438 466.800781 1503.316406 443.007812 1496.527344 C 425.195312 1491.421875 408.363281 1486.613281 403.972656 1474.640625 C 400.328125 1464.757812 405.09375 1450.140625 418.546875 1429.964844 C 424.699219 1420.484375 433.3125 1412.847656 443.460938 1407.875 C 456.789062 1401.214844 468.59375 1391.34375 479.523438 1377.691406 C 482.949219 1373.425781 485.363281 1368.007812 487.699219 1362.777344 C 493.257812 1350.324219 498.597656 1338.433594 516.957031 1338.433594 C 519.714844 1338.449219 522.46875 1338.679688 525.191406 1339.117188 C 539.207031 1341.265625 546.492188 1347.929688 554.234375 1354.980469 C 565.988281 1365.707031 578.148438 1376.773438 613.511719 1370.90625 C 649.574219 1364.894531 688.25 1347.648438 722.507812 1332.4375 L 728.550781 1329.746094 C 735.75 1326.371094 742.75 1322.574219 749.507812 1318.382812 C 760.703125 1311.734375 772.289062 1304.839844 785.320312 1302.253906 C 789.507812 1301.414062 793.699219 1300.792969 797.777344 1300.371094 L 797.777344 1295.699219 C 793.324219 1296.152344 788.839844 1296.804688 784.339844 1297.710938 C 770.574219 1300.449219 758.648438 1307.546875 747.109375 1314.398438 C 740.507812 1318.5 733.671875 1322.210938 726.632812 1325.511719 L 720.578125 1328.203125 C 686.679688 1343.304688 648.234375 1360.429688 612.75 1366.328125 C 579.660156 1371.855469 568.839844 1362 557.394531 1351.554688 C 549.484375 1344.347656 541.308594 1336.90625 525.925781 1334.523438 C 497.179688 1330.089844 489.878906 1346.464844 483.449219 1360.910156 C 481.511719 1365.835938 478.972656 1370.503906 475.894531 1374.8125 C 465.386719 1387.917969 454.097656 1397.382812 441.390625 1403.734375 C 430.546875 1409.089844 421.335938 1417.257812 414.71875 1427.382812 C 400.175781 1449.175781 395.378906 1464.742188 399.628906 1476.261719 C 404.84375 1490.441406 422.78125 1495.578125 441.765625 1501.011719 C 465.308594 1507.753906 489.660156 1514.726562 494.472656 1538.777344 C 495.503906 1543.972656 496.199219 1549.230469 496.542969 1554.515625 L 501.214844 1554.515625 C 500.863281 1548.921875 500.144531 1543.359375 499.066406 1537.859375 Z M 499.066406 1537.859375 " fill-opacity="1" fill-rule="nonzero"/><path fill="#000000" d="M 797.761719 1461.410156 C 792.886719 1463.480469 788.078125 1465.566406 783.34375 1467.636719 C 753.105469 1480.761719 724.546875 1493.152344 690.898438 1499.890625 C 672.914062 1503.488281 651.972656 1507.050781 648.484375 1506.710938 C 636.648438 1498.539062 620.457031 1470.375 617.339844 1457.753906 C 610.628906 1430.929688 636.429688 1412.09375 657.171875 1396.964844 C 660.675781 1394.394531 663.992188 1391.980469 667.042969 1389.601562 C 678.550781 1380.664062 690.679688 1379.140625 703.527344 1377.519531 C 711.617188 1376.765625 719.617188 1375.199219 727.398438 1372.851562 C 737.09375 1369.328125 746.542969 1365.167969 755.6875 1360.398438 C 766.976562 1354.824219 778.640625 1349.0625 790.164062 1346.183594 C 792.640625 1345.5625 795.191406 1345.09375 797.777344 1344.707031 L 797.777344 1340.035156 C 794.832031 1340.441406 791.910156 1341.003906 789.027344 1341.714844 C 777.019531 1344.722656 765.125 1350.589844 753.617188 1356.273438 C 744.664062 1360.941406 735.410156 1365.015625 725.917969 1368.460938 C 718.425781 1370.722656 710.726562 1372.226562 702.933594 1372.960938 C 690.027344 1374.59375 676.699219 1376.273438 664.179688 1386.003906 C 661.1875 1388.324219 657.949219 1390.675781 654.414062 1393.273438 C 632.617188 1409.230469 605.335938 1429.078125 612.808594 1458.964844 C 616.234375 1472.695312 632.914062 1502.007812 646.195312 1510.867188 C 646.476562 1511.054688 646.925781 1511.347656 649.027344 1511.347656 C 653.15625 1511.347656 663.695312 1510.164062 691.816406 1504.546875 C 725.964844 1497.710938 754.738281 1485.226562 785.242188 1471.996094 L 797.808594 1466.578125 Z M 797.761719 1461.410156 " fill-opacity="1" fill-rule="nonzero"/><path fill="#000000" d="M 797.761719 1428.097656 C 792.109375 1430.261719 786.519531 1432.503906 780.976562 1434.714844 C 757.820312 1444.054688 733.859375 1453.625 708.445312 1455.929688 C 691.085938 1457.488281 680.636719 1455.464844 679.765625 1450.328125 C 677.914062 1439.429688 710.796875 1414.851562 730.199219 1409.992188 C 748.761719 1405.324219 768.457031 1400.0625 786.769531 1392.746094 C 789.523438 1391.640625 793.308594 1390.269531 797.761719 1388.757812 L 797.761719 1383.886719 C 792 1385.800781 787.484375 1387.421875 785.039062 1388.402344 C 766.976562 1395.625 747.46875 1400.855469 729.0625 1405.523438 C 710.65625 1410.195312 672.554688 1435.804688 675.171875 1451.167969 C 676.589844 1459.558594 688.019531 1461.253906 697.671875 1461.253906 C 702.21875 1461.253906 706.359375 1460.882812 708.867188 1460.648438 C 734.964844 1458.28125 759.238281 1448.535156 782.71875 1439.117188 C 787.6875 1437.125 792.699219 1435.117188 797.761719 1433.15625 Z M 797.761719 1428.097656 " fill-opacity="1" fill-rule="nonzero"/><path fill="#000000" d="M 603.4375 1493.601562 C 591.277344 1484.496094 583.738281 1475.621094 577.417969 1462.96875 C 571.90625 1451.945312 568.976562 1440.191406 566.144531 1428.828125 C 562.53125 1414.289062 558.78125 1399.25 549.609375 1385.492188 C 545.777344 1379.746094 539.765625 1376.429688 531.734375 1375.621094 C 517.175781 1374.1875 501.027344 1381.488281 498.332031 1384.183594 C 493.320312 1389.195312 488.648438 1393.289062 484.523438 1396.902344 C 472.3125 1407.609375 463.5 1415.347656 458.628906 1434.835938 C 454.796875 1450.125 473.449219 1461.066406 493.195312 1472.648438 C 510.105469 1482.582031 527.589844 1492.886719 530.113281 1505.464844 C 531.5 1511.941406 529.941406 1526.496094 528.386719 1543.277344 C 528.027344 1546.902344 527.652344 1550.671875 527.296875 1554.515625 L 531.964844 1554.515625 C 532.308594 1550.828125 532.667969 1547.214844 533.007812 1543.726562 C 534.769531 1525.839844 536.125 1511.707031 534.738281 1504.546875 C 531.796875 1489.867188 513.390625 1479.078125 495.59375 1468.617188 C 477.390625 1457.953125 460.214844 1447.867188 463.191406 1435.925781 C 467.707031 1417.855469 475.644531 1410.894531 487.636719 1400.371094 C 491.808594 1396.714844 496.542969 1392.589844 501.648438 1387.4375 C 503.394531 1385.691406 516.054688 1380.074219 527.933594 1380.074219 C 529.070312 1380.074219 530.191406 1380.074219 531.296875 1380.230469 C 537.851562 1380.882812 542.726562 1383.515625 545.746094 1388.011719 C 554.464844 1401.089844 557.9375 1415.066406 561.628906 1429.871094 C 564.523438 1441.484375 567.5 1453.488281 573.246094 1464.976562 C 579.925781 1478.332031 587.867188 1487.6875 600.632812 1497.261719 C 614.101562 1507.347656 611.71875 1532.972656 608.015625 1554.4375 L 612.6875 1554.4375 C 616.5625 1532.007812 618.773438 1505.105469 603.4375 1493.601562 Z M 603.4375 1493.601562 " fill-opacity="1" fill-rule="nonzero"/><path fill="#000000" d="M 477.328125 1289.597656 C 457.195312 1276.179688 426.488281 1294.269531 396.796875 1311.640625 C 380.070312 1321.464844 364.269531 1330.726562 352.449219 1332.875 C 321.121094 1338.570312 292.671875 1336.984375 259.632812 1332.875 C 252.78125 1332.019531 244.964844 1329.03125 236.710938 1325.871094 C 222.152344 1320.296875 207.125 1314.550781 193.90625 1318.957031 C 179.082031 1323.890625 175.019531 1353.203125 171.765625 1376.742188 C 170.207031 1387.453125 168.867188 1397.585938 166.796875 1401.835938 C 165.925781 1402.832031 160.925781 1405.480469 156.117188 1408.0625 C 133.335938 1420.1875 85.9375 1445.421875 69.292969 1490.242188 C 63.640625 1505.449219 58.59375 1524.347656 69.835938 1535.570312 C 83.851562 1549.582031 112.671875 1535.882812 129.894531 1527.710938 C 132.695312 1526.371094 135.125 1525.21875 137.105469 1524.378906 C 173.789062 1508.65625 224.875 1493.585938 259.847656 1511.070312 C 277.382812 1519.832031 295.070312 1537.128906 308.242188 1554.546875 L 314.144531 1554.546875 C 300.394531 1535.585938 281.304688 1516.578125 261.9375 1506.898438 C 250.132812 1500.996094 236.679688 1498.601562 222.605469 1498.601562 C 193.019531 1498.601562 160.726562 1509.167969 135.265625 1520.082031 C 133.210938 1520.953125 130.75 1522.136719 127.886719 1523.492188 C 111.769531 1531.132812 84.800781 1543.929688 73.136719 1532.269531 C 63.796875 1522.929688 68.46875 1505.808594 73.667969 1491.875 C 89.707031 1448.660156 136 1424.019531 158.3125 1412.15625 C 167.15625 1407.488281 170.003906 1405.929688 170.9375 1404 C 173.367188 1399.128906 174.769531 1389.039062 176.390625 1377.363281 C 179.316406 1356.273438 183.316406 1327.378906 195.386719 1323.363281 C 207 1319.488281 221.25 1324.921875 235.027344 1330.210938 C 243.578125 1333.480469 251.628906 1336.5625 259.039062 1337.496094 C 292.53125 1341.667969 321.324219 1343.273438 353.289062 1337.496094 C 365.917969 1335.210938 382.066406 1325.730469 399.160156 1315.703125 C 426.285156 1299.78125 457.039062 1281.722656 474.726562 1293.507812 C 489.316406 1303.234375 478.496094 1324.109375 471.332031 1337.917969 C 470.585938 1339.351562 469.886719 1340.703125 469.261719 1341.949219 C 460.011719 1360.445312 432.75 1394.316406 412.722656 1403.207031 L 409.9375 1404.4375 C 390.660156 1412.933594 358.414062 1427.164062 355.238281 1449.425781 C 351 1479 377.90625 1500.09375 406.386719 1522.371094 C 419.558594 1532.660156 432.859375 1543.105469 443.070312 1554.546875 L 449.300781 1554.546875 C 438.507812 1541.546875 423.703125 1529.96875 409.28125 1518.742188 C 381.894531 1497.339844 356.03125 1477.117188 359.875 1450.15625 C 362.695312 1430.449219 394.660156 1416.34375 411.835938 1408.777344 L 414.640625 1407.535156 C 435.894531 1398.085938 463.671875 1363.648438 473.449219 1344.097656 L 475.492188 1340.128906 C 482.933594 1325.683594 495.390625 1301.648438 477.328125 1289.597656 Z M 477.328125 1289.597656 " fill-opacity="1" fill-rule="nonzero"/><path fill="#000000" d="M 373.90625 1539.523438 C 367.382812 1530.386719 361.589844 1520.269531 355.984375 1510.476562 C 352.496094 1504.390625 348.882812 1498.023438 345.085938 1492.109375 C 338.390625 1481.398438 335.398438 1469.070312 332.519531 1457.128906 C 329.3125 1443.960938 326.011719 1430.339844 317.726562 1418.742188 C 306.25 1402.660156 290.976562 1395.390625 276.214844 1388.230469 C 267.261719 1383.917969 257.980469 1379.449219 249.417969 1373.039062 C 246.644531 1370.953125 243.59375 1366.902344 240.371094 1362.621094 C 232.273438 1351.851562 222.183594 1338.449219 208 1345.5 C 200.648438 1349.171875 196.179688 1353.6875 194.34375 1359.308594 C 191.226562 1368.648438 196.507812 1378.796875 201.101562 1387.714844 C 204.679688 1394.644531 208.058594 1401.214844 206.175781 1404.996094 C 202.859375 1411.628906 192.878906 1414.757812 184.066406 1417.449219 C 179.984375 1418.59375 175.996094 1420.050781 172.136719 1421.808594 C 164.257812 1425.746094 95.328125 1461.175781 102.363281 1491.515625 C 102.589844 1492.839844 103.160156 1494.082031 104.015625 1495.117188 C 104.871094 1496.148438 105.980469 1496.945312 107.238281 1497.417969 C 116.769531 1500.933594 136.621094 1487.1875 157.859375 1471.558594 C 161.609375 1468.628906 165.511719 1465.902344 169.554688 1463.386719 C 198.609375 1448.878906 241.023438 1440.207031 265.484375 1455.496094 C 311.125 1484.011719 321.945312 1504.21875 338.328125 1534.792969 C 341.597656 1540.894531 345.085938 1547.402344 349.085938 1554.421875 L 354.472656 1554.421875 C 349.925781 1546.546875 346.050781 1539.324219 342.4375 1532.628906 C 326.304688 1502.507812 314.660156 1480.746094 267.960938 1451.554688 C 257.667969 1445.144531 245.320312 1442.667969 232.585938 1442.667969 C 208.339844 1442.667969 182.757812 1451.617188 167.46875 1459.246094 C 163.148438 1461.855469 158.988281 1464.71875 155.011719 1467.824219 C 141.636719 1477.679688 116.738281 1496 108.78125 1493.058594 C 108.253906 1492.847656 107.792969 1492.496094 107.449219 1492.042969 C 107.105469 1491.589844 106.894531 1491.054688 106.835938 1490.488281 C 101.773438 1468.695312 148.65625 1438.761719 174.148438 1426.011719 C 177.789062 1424.378906 181.546875 1423.015625 185.390625 1421.933594 C 195.074219 1418.898438 206.066406 1415.457031 210.300781 1407.050781 C 213.261719 1401.152344 209.351562 1393.570312 205.210938 1385.539062 C 201.070312 1377.503906 196.289062 1368.257812 198.75 1360.722656 C 200.164062 1356.363281 203.871094 1352.738281 210.039062 1349.65625 C 219.972656 1344.675781 227.304688 1353.035156 236.601562 1365.363281 C 240.027344 1369.921875 243.265625 1374.234375 246.566406 1376.710938 C 255.488281 1383.40625 264.972656 1387.964844 274.144531 1392.371094 C 289.027344 1399.53125 303.089844 1406.289062 313.878906 1421.386719 C 321.664062 1432.285156 324.6875 1444.847656 327.894531 1458.171875 C 330.867188 1470.46875 333.949219 1483.171875 341.050781 1494.519531 C 344.742188 1500.421875 348.324219 1506.679688 351.78125 1512.734375 C 357.449219 1522.621094 363.300781 1532.847656 369.964844 1542.171875 C 373.234375 1546.503906 376.832031 1550.582031 380.726562 1554.359375 L 380.820312 1554.453125 L 387.328125 1554.453125 C 386.253906 1553.316406 385.148438 1552.195312 384.074219 1551.089844 C 380.402344 1547.492188 377 1543.628906 373.90625 1539.523438 Z M 373.90625 1539.523438 " fill-opacity="1" fill-rule="nonzero"/><path fill="#000000" d="M 129.597656 1304.199219 C 124.679688 1301.554688 120.039062 1299.046875 115.894531 1296.558594 C 107.191406 1291.128906 98.867188 1285.109375 90.984375 1278.546875 C 71.707031 1263.210938 53.472656 1248.71875 19.214844 1250.960938 L 19.214844 1255.632812 C 51.914062 1253.421875 68.667969 1266.761719 88.054688 1282.203125 C 96.109375 1288.890625 104.605469 1295.027344 113.484375 1300.574219 C 117.734375 1303.109375 122.421875 1305.632812 127.386719 1308.355469 C 139.003906 1314.582031 151.023438 1321.089844 158.25 1328.3125 C 159.636719 1329.699219 159.355469 1335.320312 159.214844 1338.027344 C 159.214844 1339.039062 159.121094 1339.957031 159.121094 1340.6875 C 159.121094 1360.132812 153.96875 1377.195312 128.820312 1397.320312 C 124.148438 1401.058594 118.464844 1403.207031 112.453125 1405.464844 C 105.929688 1407.9375 99.171875 1410.492188 93.660156 1415.300781 C 52.382812 1451.371094 8.488281 1504.390625 29.429688 1554.515625 L 34.539062 1554.515625 C 12.816406 1506.414062 56.136719 1454.296875 96.820312 1418.773438 C 101.679688 1414.507812 107.722656 1412.21875 114.183594 1409.789062 C 120.273438 1407.488281 126.640625 1405.121094 131.808594 1400.917969 C 151.054688 1385.523438 163.871094 1369.394531 163.871094 1340.640625 C 163.871094 1339.972656 163.871094 1339.085938 163.964844 1338.214844 C 164.195312 1333.542969 164.476562 1327.816406 161.628906 1324.964844 C 153.84375 1317.261719 141.527344 1310.628906 129.597656 1304.199219 Z M 129.597656 1304.199219 " fill-opacity="1" fill-rule="nonzero"/><path fill="#000000" d="M 19.214844 1429.09375 L 19.214844 1434.339844 C 20.253906 1434.960938 21.214844 1435.703125 22.082031 1436.550781 C 23.234375 1437.71875 23.636719 1440.347656 22.984375 1443.945312 C 22.199219 1448.078125 20.933594 1452.105469 19.214844 1455.945312 L 19.214844 1466.671875 C 23.234375 1459.183594 26.566406 1451.027344 27.59375 1444.691406 C 28.449219 1439.414062 27.703125 1435.570312 25.382812 1433.25 C 23.59375 1431.503906 21.503906 1430.097656 19.214844 1429.09375 Z M 19.214844 1429.09375 " fill-opacity="1" fill-rule="nonzero"/><path fill="#000000" d="M 70.773438 1324.25 C 67.65625 1318.988281 64.449219 1313.539062 58.160156 1309.773438 C 48.941406 1304.246094 35.253906 1301.117188 19.230469 1300.777344 L 19.230469 1305.445312 C 33.339844 1305.789062 46.761719 1308.355469 55.777344 1313.757812 C 61.039062 1316.871094 63.8125 1321.542969 66.753906 1326.617188 C 68.394531 1329.546875 70.238281 1332.355469 72.28125 1335.023438 C 83.992188 1349.65625 88.164062 1361.488281 84.738281 1370.203125 C 78.167969 1386.550781 46.183594 1391.34375 19.339844 1394.910156 L 19.339844 1399.578125 C 47.570312 1395.828125 81.5 1390.84375 89.113281 1371.902344 C 93.347656 1361.363281 89.113281 1348.332031 76.050781 1332.050781 C 74.105469 1329.578125 72.34375 1326.972656 70.773438 1324.25 Z M 70.773438 1324.25 " fill-opacity="1" fill-rule="nonzero"/><path fill="#000000" d="M 422.503906 999.617188 C 419.265625 998.421875 416.273438 997.066406 413.347656 995.757812 C 406.277344 992.566406 399.597656 989.53125 390.582031 988.753906 C 367.460938 986.652344 339.199219 991.042969 309.347656 995.679688 C 257.527344 1003.742188 203.933594 1012.058594 165.226562 989.953125 C 136.917969 973.777344 123.027344 945.382812 109.589844 917.9375 C 96.511719 891.242188 84.179688 866.023438 59.761719 851.359375 C 48.410156 844.539062 34.132812 842.019531 19.277344 842.421875 L 19.277344 847.09375 C 32.125 846.765625 46.09375 848.652344 57.441406 855.375 C 80.707031 869.386719 92.757812 893.949219 105.511719 920.007812 C 119.257812 948.03125 133.539062 977.125 163.027344 994.015625 C 203.171875 1016.945312 260.019531 1008.023438 310.191406 1000.242188 C 339.773438 995.570312 367.800781 991.289062 390.285156 993.34375 C 398.523438 994.09375 404.859375 996.941406 411.554688 999.945312 C 414.53125 1001.285156 417.613281 1002.667969 420.976562 1003.929688 C 453.269531 1016.042969 471.285156 1027.703125 481.234375 1042.941406 C 492.261719 1059.832031 494.191406 1082.277344 487.464844 1115.746094 C 483.945312 1133.292969 477 1147.128906 469.652344 1161.777344 C 464.609375 1171.367188 460.132812 1181.242188 456.246094 1191.355469 C 453.828125 1198.441406 451.785156 1205.644531 450.125 1212.949219 C 446.417969 1227.984375 442.589844 1243.519531 432.53125 1254.976562 C 403.210938 1288.492188 359.472656 1307.578125 306.046875 1310.195312 C 260.550781 1312.402344 209.507812 1302.175781 166.035156 1282.171875 C 150.011719 1274.855469 134.753906 1264.972656 120.039062 1255.351562 C 100.183594 1242.429688 79.773438 1229.074219 56.585938 1221.382812 C 45.6875 1217.742188 33.042969 1216.589844 19.214844 1217.898438 L 19.214844 1222.566406 C 32.609375 1221.261719 44.738281 1222.335938 55.152344 1225.804688 C 77.714844 1233.324219 97.941406 1246.507812 117.4375 1259.257812 C 132.339844 1268.941406 147.675781 1278.980469 164.027344 1286.515625 C 204.710938 1305.121094 248.867188 1314.933594 293.605469 1315.316406 C 297.863281 1315.316406 302.074219 1315.210938 306.234375 1315.003906 C 360.949219 1312.34375 405.890625 1292.695312 436.003906 1258.199219 C 446.808594 1245.871094 450.78125 1229.757812 454.609375 1214.191406 C 456.226562 1207.054688 458.222656 1200.007812 460.589844 1193.082031 C 464.414062 1183.121094 468.820312 1173.390625 473.777344 1163.941406 C 480.941406 1149.652344 488.367188 1134.894531 491.996094 1116.726562 C 498.957031 1081.96875 496.808594 1058.445312 485.066406 1040.449219 C 474.539062 1024.308594 455.855469 1012.101562 422.503906 999.617188 Z M 422.503906 999.617188 " fill-opacity="1" fill-rule="nonzero"/><path fill="#000000" d="M 351.980469 1031.46875 C 331.847656 1026.441406 311.652344 1029.632812 292.113281 1032.714844 C 286.273438 1033.632812 280.246094 1034.582031 274.359375 1035.296875 C 269.425781 1035.890625 264.457031 1036.511719 259.476562 1037.136719 C 219.378906 1042.164062 177.929688 1047.363281 138.644531 1038.441406 C 107.003906 1031.296875 69.417969 1004.445312 61.257812 971.957031 C 59.109375 963.363281 59.390625 953.277344 59.699219 942.378906 C 60.339844 919.464844 61.070312 893.484375 34.226562 883.410156 C 29.40625 881.703125 24.332031 880.832031 19.214844 880.84375 L 19.214844 885.511719 C 23.78125 885.507812 28.3125 886.292969 32.609375 887.832031 C 56.320312 896.738281 55.699219 918.855469 55.046875 942.316406 C 54.75 952.917969 54.453125 963.863281 56.757812 973.09375 C 61.863281 993.5 76.640625 1008.898438 88.148438 1018.238281 C 102.800781 1030.160156 120.847656 1039.175781 137.617188 1042.988281 C 177.695312 1052.09375 219.566406 1046.847656 260.050781 1041.773438 C 265.035156 1041.136719 270 1040.527344 274.90625 1039.9375 C 280.886719 1039.222656 286.957031 1038.253906 292.84375 1037.320312 C 311.917969 1034.316406 331.648438 1031.203125 350.84375 1036 C 370.667969 1040.949219 391.128906 1053.839844 405.578125 1070.480469 C 421.445312 1088.722656 428.652344 1109.394531 425.820312 1128.777344 C 421.476562 1159.242188 404.285156 1185.875 374.714844 1207.917969 C 321.773438 1247.351562 243.921875 1260.535156 194.25 1253.1875 C 171.8125 1249.902344 150.867188 1239.316406 130.59375 1229.167969 C 122.980469 1225.324219 115.023438 1221.382812 107.238281 1217.820312 C 95.015625 1212.324219 84.117188 1202.253906 72.5625 1191.636719 C 56.585938 1176.738281 40.019531 1161.546875 19.214844 1158.804688 L 19.214844 1163.570312 C 38.429688 1166.433594 54.140625 1180.910156 69.449219 1194.921875 C 80.753906 1205.351562 92.460938 1216.136719 105.371094 1221.945312 C 113.15625 1225.417969 120.941406 1229.371094 128.492188 1233.199219 C 149.09375 1243.597656 170.378906 1254.355469 193.625 1257.796875 C 244.246094 1265.28125 323.675781 1251.847656 377.582031 1211.65625 C 407.742188 1189.160156 426.039062 1160.71875 430.523438 1129.414062 C 433.464844 1108.710938 425.851562 1086.683594 409.113281 1067.398438 C 394.054688 1050.148438 372.675781 1036.699219 351.980469 1031.46875 Z M 351.980469 1031.46875 " fill-opacity="1" fill-rule="nonzero"/><path fill="#000000" d="M 237.535156 1085.113281 C 227.648438 1081.15625 217.292969 1077.328125 207.3125 1073.640625 C 187.382812 1066.246094 166.671875 1058.601562 148.453125 1049.527344 C 142.664062 1046.628906 135.0625 1046.925781 127.714844 1047.222656 C 123.5625 1047.542969 119.394531 1047.464844 115.257812 1046.988281 C 104.546875 1045.199219 91.417969 1037.914062 81.171875 1031.78125 C 63.109375 1020.882812 41.1875 994.761719 37.292969 971.363281 C 36.4375 966.273438 35.984375 960.839844 35.488281 955.097656 C 34.070312 938.066406 32.453125 919.027344 19.214844 908.210938 L 19.214844 914.714844 C 28.230469 924.664062 29.570312 940.277344 30.863281 955.519531 C 31.363281 961.355469 31.84375 966.867188 32.714844 972.144531 C 36.84375 996.863281 59.839844 1024.433594 78.804688 1035.796875 C 89.394531 1042.148438 103.019531 1049.699219 114.527344 1051.613281 C 118.984375 1052.144531 123.484375 1052.242188 127.964844 1051.90625 C 134.722656 1051.644531 141.710938 1051.363281 146.429688 1053.714844 C 164.804688 1062.898438 185.589844 1070.589844 205.695312 1078.027344 C 215.660156 1081.71875 225.9375 1085.53125 235.808594 1089.472656 C 254.992188 1097.144531 287.9375 1124.292969 282.519531 1148.828125 C 278.785156 1165.671875 264.363281 1177.390625 252.9375 1184.242188 C 238.960938 1192.402344 223.601562 1197.917969 207.625 1200.507812 C 165.753906 1206.953125 99.71875 1171.664062 51.511719 1145.917969 C 41.636719 1140.640625 32.328125 1135.671875 24.433594 1131.71875 C 22.671875 1130.832031 20.929688 1129.976562 19.214844 1129.136719 L 19.214844 1134.351562 L 22.332031 1135.90625 C 30.117188 1139.828125 39.457031 1144.796875 49.285156 1150.042969 C 94.035156 1173.953125 153.9375 1205.957031 197.050781 1205.957031 C 200.820312 1205.972656 204.582031 1205.695312 208.308594 1205.132812 C 235.964844 1200.882812 279.734375 1182.652344 287.019531 1149.839844 C 293.140625 1122.363281 258.601562 1093.535156 237.535156 1085.113281 Z M 237.535156 1085.113281 " fill-opacity="1" fill-rule="nonzero"/><path fill="#000000" d="M 134.535156 1071.941406 L 131.421875 1071.117188 L 121.734375 1068.535156 C 94.175781 1061.21875 56.429688 1051.207031 37.652344 1035.15625 C 30.738281 1029.117188 24.105469 1018.703125 19.214844 1007.929688 L 19.214844 1018.375 C 23.683594 1026.457031 29.027344 1033.789062 34.789062 1038.613281 C 54.328125 1055.347656 92.664062 1065.527344 120.660156 1072.953125 C 124.070312 1073.855469 127.308594 1074.714844 130.316406 1075.539062 L 133.429688 1076.363281 C 149.902344 1080.753906 164.136719 1084.550781 160.476562 1104.664062 C 158.917969 1112.804688 153.984375 1119.933594 145.980469 1125.289062 C 133.910156 1133.371094 115.507812 1136.871094 101.210938 1133.804688 C 78.589844 1129.058594 56.585938 1111.03125 35.394531 1093.582031 C 29.945312 1089.113281 24.496094 1084.691406 19.214844 1080.519531 L 19.214844 1086.464844 C 23.578125 1089.9375 27.984375 1093.550781 32.4375 1097.191406 C 54.09375 1114.984375 76.5 1133.386719 100.136719 1138.445312 C 104.121094 1139.285156 108.183594 1139.695312 112.253906 1139.675781 C 125.070312 1139.722656 137.628906 1136.101562 148.453125 1129.246094 C 157.53125 1123.171875 163.230469 1114.984375 164.945312 1105.566406 C 169.414062 1081.28125 150.882812 1076.285156 134.535156 1071.941406 Z M 134.535156 1071.941406 " fill-opacity="1" fill-rule="nonzero"/></svg>